  0
SECTION
  2
HEADER
  9
$ACADVER
  1
AC1014
  9
$HANDSEED
  5
FFFF
  9
$MEASUREMENT
 70
     1
  0
ENDSEC
  0
SECTION
  2
TABLES
  0
TABLE
  2
VPORT
  5
8
330
0
100
AcDbSymbolTable
 70
     4
  0
VPORT
  5
2E
330
8
100
AcDbSymbolTableRecord
100
AcDbViewportTableRecord
  2
*ACTIVE
 70
     0
 10
0.0
 20
0.0
 11
1.0
 21
1.0
 12
210.0
 22
148.5
 13
0.0
 23
0.0
 14
10.0
 24
10.0
 15
10.0
 25
10.0
 16
0.0
 26
0.0
 36
1.0
 17
0.0
 27
0.0
 37
0.0
 40
341.0
 41
1.24
 42
50.0
 43
0.0
 44
0.0
 50
0.0
 51
0.0
 71
     0
 72
   100
 73
     1
 74
     3
 75
     0
 76
     0
 77
     0
 78
     0
  0
ENDTAB
  0
TABLE
  2
LTYPE
  5
5
330
0
100
AcDbSymbolTable
 70
     1
  0
LTYPE
  5
14
330
5
100
AcDbSymbolTableRecord
100
AcDbLinetypeTableRecord
  2
BYBLOCK
 70
     0
  3

 72
    65
 73
     0
 40
0.0
  0
LTYPE
  5
15
330
5
100
AcDbSymbolTableRecord
100
AcDbLinetypeTableRecord
  2
BYLAYER
 70
     0
  3

 72
    65
 73
     0
 40
0.0
  0
LTYPE
  5
16
330
5
100
AcDbSymbolTableRecord
100
AcDbLinetypeTableRecord
  2
CONTINUOUS
 70
     0
  3
Solid line
 72
    65
 73
     0
 40
0.0
  0
ENDTAB
  0
TABLE
  2
LAYER
  5
2
100
AcDbSymbolTable
 70
5
  0
LAYER
  5
50
100
AcDbSymbolTableRecord
100
AcDbLayerTableRecord
  2
0
 70
0
  6
CONTINUOUS
  0
LAYER
  5
51
100
AcDbSymbolTableRecord
100
AcDbLayerTableRecord
  2
box
 70
0
  6
CONTINUOUS
  0
LAYER
  5
52
100
AcDbSymbolTableRecord
100
AcDbLayerTableRecord
  2
labels
 70
0
  6
CONTINUOUS
  0
LAYER
  5
53
100
AcDbSymbolTableRecord
100
AcDbLayerTableRecord
  2
holes
 70
0
  6
CONTINUOUS
  0
LAYER
  5
54
100
AcDbSymbolTableRecord
100
AcDbLayerTableRecord
  2
engravings
 70
0
  6
CONTINUOUS
  0
ENDTAB
  0
TABLE
  2
STYLE
  5
3
330
0
100
AcDbSymbolTable
 70
     1
  0
STYLE
  5
11
330
3
100
AcDbSymbolTableRecord
100
AcDbTextStyleTableRecord
  2
STANDARD
 70
     0
 40
0.0
 41
1.0
 50
0.0
 71
     0
 42
2.5
  3
txt
  4

  0
ENDTAB
  0
TABLE
  2
VIEW
  5
6
330
0
100
AcDbSymbolTable
 70
     0
  0
ENDTAB
  0
TABLE
  2
UCS
  5
7
330
0
100
AcDbSymbolTable
 70
     0
  0
ENDTAB
  0
TABLE
  2
APPID
  5
9
330
0
100
AcDbSymbolTable
 70
     2
  0
APPID
  5
12
330
9
100
AcDbSymbolTableRecord
100
AcDbRegAppTableRecord
  2
ACAD
 70
     0
  0
ENDTAB
  0
TABLE
  2
DIMSTYLE
  5
A
330
0
100
AcDbSymbolTable
 70
     1
  0
DIMSTYLE
105
27
330
A
100
AcDbSymbolTableRecord
100
AcDbDimStyleTableRecord
  2
ISO-25
 70
     0
  3

  4

  5

  6

  7

 40
1.0
 41
2.5
 42
0.625
 43
3.75
 44
1.25
 45
0.0
 46
0.0
 47
0.0
 48
0.0
140
2.5
141
2.5
142
0.0
143
0.03937007874016
144
1.0
145
0.0
146
1.0
147
0.625
 71
     0
 72
     0
 73
     0
 74
     0
 75
     0
 76
     0
 77
     1
 78
     8
170
     0
171
     3
172
     1
173
     0
174
     0
175
     0
176
     0
177
     0
178
     0
270
     2
271
     2
272
     2
273
     2
274
     3
340
11
275
     0
280
     0
281
     0
282
     0
283
     0
284
     8
285
     0
286
     0
287
     3
288
     0
  0
ENDTAB
  0
TABLE
  2
BLOCK_RECORD
  5
1
330
0
100
AcDbSymbolTable
 70
     1
  0
BLOCK_RECORD
  5
1F
330
1
100
AcDbSymbolTableRecord
100
AcDbBlockTableRecord
  2
*MODEL_SPACE
  0
BLOCK_RECORD
  5
1B
330
1
100
AcDbSymbolTableRecord
100
AcDbBlockTableRecord
  2
*PAPER_SPACE
  0
ENDTAB
  0
ENDSEC
  0
SECTION
  2
BLOCKS
  0
BLOCK
  5
20
330
1F
100
AcDbEntity
  8
0
100
AcDbBlockBegin
  2
*MODEL_SPACE
 70
     0
 10
0.0
 20
0.0
 30
0.0
  3
*MODEL_SPACE
  1

  0
ENDBLK
  5
21
330
1F
100
AcDbEntity
  8
0
100
AcDbBlockEnd
  0
BLOCK
  5
1C
330
1B
100
AcDbEntity
 67
     1
  8
0
100
AcDbBlockBegin
  2
*PAPER_SPACE
  1

  0
ENDBLK
  5
1D
330
1B
100
AcDbEntity
 67
     1
  8
0
100
AcDbBlockEnd
  0
ENDSEC
  0
SECTION
  2
ENTITIES
  0
LWPOLYLINE
  5
100
100
AcDbEntity
  8
box
 62
7
100
AcDbPolyline
 90
69
 70
0
 10
63.542857
 20
806.230657
 30
0.0
 10
99.362856
 20
806.230657
 30
0.0
 10
99.362856
 20
824.230657
 30
0.0
 10
135.722856
 20
824.230657
 30
0.0
 10
135.722856
 20
806.230657
 30
0.0
 10
171.362856
 20
806.230657
 30
0.0
 10
171.362856
 20
824.230657
 30
0.0
 10
207.722856
 20
824.230657
 30
0.0
 10
207.722856
 20
806.230657
 30
0.0
 10
243.362856
 20
806.230657
 30
0.0
 10
243.362856
 20
824.230657
 30
0.0
 10
279.722856
 20
824.230657
 30
0.0
 10
279.722856
 20
806.230657
 30
0.0
 10
315.362856
 20
806.230657
 30
0.0
 10
315.362856
 20
824.230657
 30
0.0
 10
351.722856
 20
824.230657
 30
0.0
 10
351.722856
 20
806.230657
 30
0.0
 10
387.542856
 20
806.230657
 30
0.0
 10
387.542856
 20
788.050657
 30
0.0
 10
369.542856
 20
788.050657
 30
0.0
 10
369.542856
 20
752.410656
 30
0.0
 10
387.542856
 20
752.410656
 30
0.0
 10
387.542856
 20
716.050656
 30
0.0
 10
369.542856
 20
716.050656
 30
0.0
 10
369.542856
 20
680.410656
 30
0.0
 10
387.542856
 20
680.410656
 30
0.0
 10
387.542856
 20
644.050656
 30
0.0
 10
369.542856
 20
644.050656
 30
0.0
 10
369.542856
 20
608.410656
 30
0.0
 10
387.542856
 20
608.410656
 30
0.0
 10
387.542856
 20
572.050656
 30
0.0
 10
369.542856
 20
572.050656
 30
0.0
 10
369.542856
 20
536.410656
 30
0.0
 10
387.542856
 20
536.410656
 30
0.0
 10
387.542856
 20
518.230656
 30
0.0
 10
351.722856
 20
518.230656
 30
0.0
 10
351.722856
 20
500.230656
 30
0.0
 10
315.362856
 20
500.230656
 30
0.0
 10
315.362856
 20
518.230656
 30
0.0
 10
279.722856
 20
518.230656
 30
0.0
 10
279.722856
 20
500.230656
 30
0.0
 10
243.362856
 20
500.230656
 30
0.0
 10
243.362856
 20
518.230656
 30
0.0
 10
207.722856
 20
518.230656
 30
0.0
 10
207.722856
 20
500.230656
 30
0.0
 10
171.362856
 20
500.230656
 30
0.0
 10
171.362856
 20
518.230656
 30
0.0
 10
135.722856
 20
518.230656
 30
0.0
 10
135.722856
 20
500.230656
 30
0.0
 10
99.362856
 20
500.230656
 30
0.0
 10
99.362856
 20
518.230656
 30
0.0
 10
63.542857
 20
518.230656
 30
0.0
 10
63.542857
 20
536.410656
 30
0.0
 10
81.542856
 20
536.410656
 30
0.0
 10
81.542856
 20
572.050656
 30
0.0
 10
63.542857
 20
572.050656
 30
0.0
 10
63.542857
 20
608.410656
 30
0.0
 10
81.542856
 20
608.410656
 30
0.0
 10
81.542856
 20
644.050656
 30
0.0
 10
63.542857
 20
644.050656
 30
0.0
 10
63.542857
 20
680.410656
 30
0.0
 10
81.542856
 20
680.410656
 30
0.0
 10
81.542856
 20
716.050656
 30
0.0
 10
63.542857
 20
716.050656
 30
0.0
 10
63.542857
 20
752.410656
 30
0.0
 10
81.542856
 20
752.410656
 30
0.0
 10
81.542856
 20
788.050657
 30
0.0
 10
63.542857
 20
788.050657
 30
0.0
 10
63.542857
 20
806.230657
 30
0.0
  0
LWPOLYLINE
  5
101
100
AcDbEntity
  8
box
 62
7
100
AcDbPolyline
 90
69
 70
0
 10
82.400000
 20
463.887800
 30
0.0
 10
100.220000
 20
463.887800
 30
0.0
 10
100.220000
 20
481.887800
 30
0.0
 10
136.580000
 20
481.887800
 30
0.0
 10
136.580000
 20
463.887800
 30
0.0
 10
172.220000
 20
463.887800
 30
0.0
 10
172.220000
 20
481.887800
 30
0.0
 10
208.580000
 20
481.887800
 30
0.0
 10
208.580000
 20
463.887800
 30
0.0
 10
244.220000
 20
463.887800
 30
0.0
 10
244.220000
 20
481.887800
 30
0.0
 10
280.580000
 20
481.887800
 30
0.0
 10
280.580000
 20
463.887800
 30
0.0
 10
316.220000
 20
463.887800
 30
0.0
 10
316.220000
 20
481.887800
 30
0.0
 10
352.580000
 20
481.887800
 30
0.0
 10
352.580000
 20
463.887800
 30
0.0
 10
370.400000
 20
463.887800
 30
0.0
 10
370.400000
 20
446.067800
 30
0.0
 10
388.400000
 20
446.067800
 30
0.0
 10
388.400000
 20
409.707800
 30
0.0
 10
370.400000
 20
409.707800
 30
0.0
 10
370.400000
 20
374.067800
 30
0.0
 10
388.400000
 20
374.067800
 30
0.0
 10
388.400000
 20
337.707800
 30
0.0
 10
370.400000
 20
337.707800
 30
0.0
 10
370.400000
 20
302.067800
 30
0.0
 10
388.400000
 20
302.067800
 30
0.0
 10
388.400000
 20
265.707800
 30
0.0
 10
370.400000
 20
265.707800
 30
0.0
 10
370.400000
 20
230.067800
 30
0.0
 10
388.400000
 20
230.067800
 30
0.0
 10
388.400000
 20
193.707800
 30
0.0
 10
370.400000
 20
193.707800
 30
0.0
 10
370.400000
 20
175.887800
 30
0.0
 10
352.580000
 20
175.887800
 30
0.0
 10
352.580000
 20
157.887800
 30
0.0
 10
316.220000
 20
157.887800
 30
0.0
 10
316.220000
 20
175.887800
 30
0.0
 10
280.580000
 20
175.887800
 30
0.0
 10
280.580000
 20
157.887800
 30
0.0
 10
244.220000
 20
157.887800
 30
0.0
 10
244.220000
 20
175.887800
 30
0.0
 10
208.580000
 20
175.887800
 30
0.0
 10
208.580000
 20
157.887800
 30
0.0
 10
172.220000
 20
157.887800
 30
0.0
 10
172.220000
 20
175.887800
 30
0.0
 10
136.580000
 20
175.887800
 30
0.0
 10
136.580000
 20
157.887800
 30
0.0
 10
100.220000
 20
157.887800
 30
0.0
 10
100.220000
 20
175.887800
 30
0.0
 10
82.400000
 20
175.887800
 30
0.0
 10
82.400000
 20
193.707800
 30
0.0
 10
64.400000
 20
193.707800
 30
0.0
 10
64.400000
 20
230.067800
 30
0.0
 10
82.400000
 20
230.067800
 30
0.0
 10
82.400000
 20
265.707800
 30
0.0
 10
64.400000
 20
265.707800
 30
0.0
 10
64.400000
 20
302.067800
 30
0.0
 10
82.400000
 20
302.067800
 30
0.0
 10
82.400000
 20
337.707800
 30
0.0
 10
64.400000
 20
337.707800
 30
0.0
 10
64.400000
 20
374.067800
 30
0.0
 10
82.400000
 20
374.067800
 30
0.0
 10
82.400000
 20
409.707800
 30
0.0
 10
64.400000
 20
409.707800
 30
0.0
 10
64.400000
 20
446.067800
 30
0.0
 10
82.400000
 20
446.067800
 30
0.0
 10
82.400000
 20
463.887800
 30
0.0
  0
LWPOLYLINE
  5
102
100
AcDbEntity
  8
box
 62
7
100
AcDbPolyline
 90
69
 70
0
 10
406.400000
 20
481.887800
 30
0.0
 10
442.580000
 20
481.887800
 30
0.0
 10
442.580000
 20
463.887800
 30
0.0
 10
478.220000
 20
463.887800
 30
0.0
 10
478.220000
 20
481.887800
 30
0.0
 10
514.580000
 20
481.887800
 30
0.0
 10
514.580000
 20
463.887800
 30
0.0
 10
550.220000
 20
463.887800
 30
0.0
 10
550.220000
 20
481.887800
 30
0.0
 10
586.580000
 20
481.887800
 30
0.0
 10
586.580000
 20
463.887800
 30
0.0
 10
622.220000
 20
463.887800
 30
0.0
 10
622.220000
 20
481.887800
 30
0.0
 10
658.580000
 20
481.887800
 30
0.0
 10
658.580000
 20
463.887800
 30
0.0
 10
694.220000
 20
463.887800
 30
0.0
 10
694.220000
 20
481.887800
 30
0.0
 10
730.400000
 20
481.887800
 30
0.0
 10
730.400000
 20
445.707800
 30
0.0
 10
712.400000
 20
445.707800
 30
0.0
 10
712.400000
 20
410.067800
 30
0.0
 10
730.400000
 20
410.067800
 30
0.0
 10
730.400000
 20
373.707800
 30
0.0
 10
712.400000
 20
373.707800
 30
0.0
 10
712.400000
 20
338.067800
 30
0.0
 10
730.400000
 20
338.067800
 30
0.0
 10
730.400000
 20
301.707800
 30
0.0
 10
712.400000
 20
301.707800
 30
0.0
 10
712.400000
 20
266.067800
 30
0.0
 10
730.400000
 20
266.067800
 30
0.0
 10
730.400000
 20
229.707800
 30
0.0
 10
712.400000
 20
229.707800
 30
0.0
 10
712.400000
 20
194.067800
 30
0.0
 10
730.400000
 20
194.067800
 30
0.0
 10
730.400000
 20
157.887800
 30
0.0
 10
694.220000
 20
157.887800
 30
0.0
 10
694.220000
 20
175.887800
 30
0.0
 10
658.580000
 20
175.887800
 30
0.0
 10
658.580000
 20
157.887800
 30
0.0
 10
622.220000
 20
157.887800
 30
0.0
 10
622.220000
 20
175.887800
 30
0.0
 10
586.580000
 20
175.887800
 30
0.0
 10
586.580000
 20
157.887800
 30
0.0
 10
550.220000
 20
157.887800
 30
0.0
 10
550.220000
 20
175.887800
 30
0.0
 10
514.580000
 20
175.887800
 30
0.0
 10
514.580000
 20
157.887800
 30
0.0
 10
478.220000
 20
157.887800
 30
0.0
 10
478.220000
 20
175.887800
 30
0.0
 10
442.580000
 20
175.887800
 30
0.0
 10
442.580000
 20
157.887800
 30
0.0
 10
406.400000
 20
157.887800
 30
0.0
 10
406.400000
 20
194.067800
 30
0.0
 10
424.400000
 20
194.067800
 30
0.0
 10
424.400000
 20
229.707800
 30
0.0
 10
406.400000
 20
229.707800
 30
0.0
 10
406.400000
 20
266.067800
 30
0.0
 10
424.400000
 20
266.067800
 30
0.0
 10
424.400000
 20
301.707800
 30
0.0
 10
406.400000
 20
301.707800
 30
0.0
 10
406.400000
 20
338.067800
 30
0.0
 10
424.400000
 20
338.067800
 30
0.0
 10
424.400000
 20
373.707800
 30
0.0
 10
406.400000
 20
373.707800
 30
0.0
 10
406.400000
 20
410.067800
 30
0.0
 10
424.400000
 20
410.067800
 30
0.0
 10
424.400000
 20
445.707800
 30
0.0
 10
406.400000
 20
445.707800
 30
0.0
 10
406.400000
 20
481.887800
 30
0.0
  0
LWPOLYLINE
  5
103
100
AcDbEntity
  8
box
 62
7
100
AcDbPolyline
 90
69
 70
0
 10
766.400000
 20
463.887800
 30
0.0
 10
784.220000
 20
463.887800
 30
0.0
 10
784.220000
 20
481.887800
 30
0.0
 10
820.580000
 20
481.887800
 30
0.0
 10
820.580000
 20
463.887800
 30
0.0
 10
856.220000
 20
463.887800
 30
0.0
 10
856.220000
 20
481.887800
 30
0.0
 10
892.580000
 20
481.887800
 30
0.0
 10
892.580000
 20
463.887800
 30
0.0
 10
928.220000
 20
463.887800
 30
0.0
 10
928.220000
 20
481.887800
 30
0.0
 10
964.580000
 20
481.887800
 30
0.0
 10
964.580000
 20
463.887800
 30
0.0
 10
1000.220000
 20
463.887800
 30
0.0
 10
1000.220000
 20
481.887800
 30
0.0
 10
1036.580000
 20
481.887800
 30
0.0
 10
1036.580000
 20
463.887800
 30
0.0
 10
1054.400000
 20
463.887800
 30
0.0
 10
1054.400000
 20
446.067800
 30
0.0
 10
1072.400000
 20
446.067800
 30
0.0
 10
1072.400000
 20
409.707800
 30
0.0
 10
1054.400000
 20
409.707800
 30
0.0
 10
1054.400000
 20
374.067800
 30
0.0
 10
1072.400000
 20
374.067800
 30
0.0
 10
1072.400000
 20
337.707800
 30
0.0
 10
1054.400000
 20
337.707800
 30
0.0
 10
1054.400000
 20
302.067800
 30
0.0
 10
1072.400000
 20
302.067800
 30
0.0
 10
1072.400000
 20
265.707800
 30
0.0
 10
1054.400000
 20
265.707800
 30
0.0
 10
1054.400000
 20
230.067800
 30
0.0
 10
1072.400000
 20
230.067800
 30
0.0
 10
1072.400000
 20
193.707800
 30
0.0
 10
1054.400000
 20
193.707800
 30
0.0
 10
1054.400000
 20
175.887800
 30
0.0
 10
1036.580000
 20
175.887800
 30
0.0
 10
1036.580000
 20
157.887800
 30
0.0
 10
1000.220000
 20
157.887800
 30
0.0
 10
1000.220000
 20
175.887800
 30
0.0
 10
964.580000
 20
175.887800
 30
0.0
 10
964.580000
 20
157.887800
 30
0.0
 10
928.220000
 20
157.887800
 30
0.0
 10
928.220000
 20
175.887800
 30
0.0
 10
892.580000
 20
175.887800
 30
0.0
 10
892.580000
 20
157.887800
 30
0.0
 10
856.220000
 20
157.887800
 30
0.0
 10
856.220000
 20
175.887800
 30
0.0
 10
820.580000
 20
175.887800
 30
0.0
 10
820.580000
 20
157.887800
 30
0.0
 10
784.220000
 20
157.887800
 30
0.0
 10
784.220000
 20
175.887800
 30
0.0
 10
766.400000
 20
175.887800
 30
0.0
 10
766.400000
 20
193.707800
 30
0.0
 10
748.400000
 20
193.707800
 30
0.0
 10
748.400000
 20
230.067800
 30
0.0
 10
766.400000
 20
230.067800
 30
0.0
 10
766.400000
 20
265.707800
 30
0.0
 10
748.400000
 20
265.707800
 30
0.0
 10
748.400000
 20
302.067800
 30
0.0
 10
766.400000
 20
302.067800
 30
0.0
 10
766.400000
 20
337.707800
 30
0.0
 10
748.400000
 20
337.707800
 30
0.0
 10
748.400000
 20
374.067800
 30
0.0
 10
766.400000
 20
374.067800
 30
0.0
 10
766.400000
 20
409.707800
 30
0.0
 10
748.400000
 20
409.707800
 30
0.0
 10
748.400000
 20
446.067800
 30
0.0
 10
766.400000
 20
446.067800
 30
0.0
 10
766.400000
 20
463.887800
 30
0.0
  0
LWPOLYLINE
  5
104
100
AcDbEntity
  8
box
 62
7
100
AcDbPolyline
 90
69
 70
0
 10
749.600000
 20
824.287800
 30
0.0
 10
785.780000
 20
824.287800
 30
0.0
 10
785.780000
 20
806.287800
 30
0.0
 10
821.420000
 20
806.287800
 30
0.0
 10
821.420000
 20
824.287800
 30
0.0
 10
857.780000
 20
824.287800
 30
0.0
 10
857.780000
 20
806.287800
 30
0.0
 10
893.420000
 20
806.287800
 30
0.0
 10
893.420000
 20
824.287800
 30
0.0
 10
929.780000
 20
824.287800
 30
0.0
 10
929.780000
 20
806.287800
 30
0.0
 10
965.420000
 20
806.287800
 30
0.0
 10
965.420000
 20
824.287800
 30
0.0
 10
1001.780000
 20
824.287800
 30
0.0
 10
1001.780000
 20
806.287800
 30
0.0
 10
1037.420000
 20
806.287800
 30
0.0
 10
1037.420000
 20
824.287800
 30
0.0
 10
1073.600000
 20
824.287800
 30
0.0
 10
1073.600000
 20
788.107800
 30
0.0
 10
1055.600000
 20
788.107800
 30
0.0
 10
1055.600000
 20
752.467800
 30
0.0
 10
1073.600000
 20
752.467800
 30
0.0
 10
1073.600000
 20
716.107800
 30
0.0
 10
1055.600000
 20
716.107800
 30
0.0
 10
1055.600000
 20
680.467800
 30
0.0
 10
1073.600000
 20
680.467800
 30
0.0
 10
1073.600000
 20
644.107800
 30
0.0
 10
1055.600000
 20
644.107800
 30
0.0
 10
1055.600000
 20
608.467800
 30
0.0
 10
1073.600000
 20
608.467800
 30
0.0
 10
1073.600000
 20
572.107800
 30
0.0
 10
1055.600000
 20
572.107800
 30
0.0
 10
1055.600000
 20
536.467800
 30
0.0
 10
1073.600000
 20
536.467800
 30
0.0
 10
1073.600000
 20
500.287800
 30
0.0
 10
1037.420000
 20
500.287800
 30
0.0
 10
1037.420000
 20
518.287800
 30
0.0
 10
1001.780000
 20
518.287800
 30
0.0
 10
1001.780000
 20
500.287800
 30
0.0
 10
965.420000
 20
500.287800
 30
0.0
 10
965.420000
 20
518.287800
 30
0.0
 10
929.780000
 20
518.287800
 30
0.0
 10
929.780000
 20
500.287800
 30
0.0
 10
893.420000
 20
500.287800
 30
0.0
 10
893.420000
 20
518.287800
 30
0.0
 10
857.780000
 20
518.287800
 30
0.0
 10
857.780000
 20
500.287800
 30
0.0
 10
821.420000
 20
500.287800
 30
0.0
 10
821.420000
 20
518.287800
 30
0.0
 10
785.780000
 20
518.287800
 30
0.0
 10
785.780000
 20
500.287800
 30
0.0
 10
749.600000
 20
500.287800
 30
0.0
 10
749.600000
 20
536.467800
 30
0.0
 10
767.600000
 20
536.467800
 30
0.0
 10
767.600000
 20
572.107800
 30
0.0
 10
749.600000
 20
572.107800
 30
0.0
 10
749.600000
 20
608.467800
 30
0.0
 10
767.600000
 20
608.467800
 30
0.0
 10
767.600000
 20
644.107800
 30
0.0
 10
749.600000
 20
644.107800
 30
0.0
 10
749.600000
 20
680.467800
 30
0.0
 10
767.600000
 20
680.467800
 30
0.0
 10
767.600000
 20
716.107800
 30
0.0
 10
749.600000
 20
716.107800
 30
0.0
 10
749.600000
 20
752.467800
 30
0.0
 10
767.600000
 20
752.467800
 30
0.0
 10
767.600000
 20
788.107800
 30
0.0
 10
749.600000
 20
788.107800
 30
0.0
 10
749.600000
 20
824.287800
 30
0.0
  0
LWPOLYLINE
  5
105
100
AcDbEntity
  8
box
 62
7
100
AcDbPolyline
 90
69
 70
0
 10
406.400000
 20
805.887800
 30
0.0
 10
442.220000
 20
805.887800
 30
0.0
 10
442.220000
 20
823.887800
 30
0.0
 10
478.580000
 20
823.887800
 30
0.0
 10
478.580000
 20
805.887800
 30
0.0
 10
514.220000
 20
805.887800
 30
0.0
 10
514.220000
 20
823.887800
 30
0.0
 10
550.580000
 20
823.887800
 30
0.0
 10
550.580000
 20
805.887800
 30
0.0
 10
586.220000
 20
805.887800
 30
0.0
 10
586.220000
 20
823.887800
 30
0.0
 10
622.580000
 20
823.887800
 30
0.0
 10
622.580000
 20
805.887800
 30
0.0
 10
658.220000
 20
805.887800
 30
0.0
 10
658.220000
 20
823.887800
 30
0.0
 10
694.580000
 20
823.887800
 30
0.0
 10
694.580000
 20
805.887800
 30
0.0
 10
730.400000
 20
805.887800
 30
0.0
 10
730.400000
 20
787.707800
 30
0.0
 10
712.400000
 20
787.707800
 30
0.0
 10
712.400000
 20
752.067800
 30
0.0
 10
730.400000
 20
752.067800
 30
0.0
 10
730.400000
 20
715.707800
 30
0.0
 10
712.400000
 20
715.707800
 30
0.0
 10
712.400000
 20
680.067800
 30
0.0
 10
730.400000
 20
680.067800
 30
0.0
 10
730.400000
 20
643.707800
 30
0.0
 10
712.400000
 20
643.707800
 30
0.0
 10
712.400000
 20
608.067800
 30
0.0
 10
730.400000
 20
608.067800
 30
0.0
 10
730.400000
 20
571.707800
 30
0.0
 10
712.400000
 20
571.707800
 30
0.0
 10
712.400000
 20
536.067800
 30
0.0
 10
730.400000
 20
536.067800
 30
0.0
 10
730.400000
 20
517.887800
 30
0.0
 10
694.580000
 20
517.887800
 30
0.0
 10
694.580000
 20
499.887800
 30
0.0
 10
658.220000
 20
499.887800
 30
0.0
 10
658.220000
 20
517.887800
 30
0.0
 10
622.580000
 20
517.887800
 30
0.0
 10
622.580000
 20
499.887800
 30
0.0
 10
586.220000
 20
499.887800
 30
0.0
 10
586.220000
 20
517.887800
 30
0.0
 10
550.580000
 20
517.887800
 30
0.0
 10
550.580000
 20
499.887800
 30
0.0
 10
514.220000
 20
499.887800
 30
0.0
 10
514.220000
 20
517.887800
 30
0.0
 10
478.580000
 20
517.887800
 30
0.0
 10
478.580000
 20
499.887800
 30
0.0
 10
442.220000
 20
499.887800
 30
0.0
 10
442.220000
 20
517.887800
 30
0.0
 10
406.400000
 20
517.887800
 30
0.0
 10
406.400000
 20
536.067800
 30
0.0
 10
424.400000
 20
536.067800
 30
0.0
 10
424.400000
 20
571.707800
 30
0.0
 10
406.400000
 20
571.707800
 30
0.0
 10
406.400000
 20
608.067800
 30
0.0
 10
424.400000
 20
608.067800
 30
0.0
 10
424.400000
 20
643.707800
 30
0.0
 10
406.400000
 20
643.707800
 30
0.0
 10
406.400000
 20
680.067800
 30
0.0
 10
424.400000
 20
680.067800
 30
0.0
 10
424.400000
 20
715.707800
 30
0.0
 10
406.400000
 20
715.707800
 30
0.0
 10
406.400000
 20
752.067800
 30
0.0
 10
424.400000
 20
752.067800
 30
0.0
 10
424.400000
 20
787.707800
 30
0.0
 10
406.400000
 20
787.707800
 30
0.0
 10
406.400000
 20
805.887800
 30
0.0
  0
LWPOLYLINE
  5
106
100
AcDbEntity
  8
box
 62
7
100
AcDbPolyline
 90
69
 70
0
 10
63.542857
 20
806.230657
 30
0.0
 10
99.362856
 20
806.230657
 30
0.0
 10
99.362856
 20
824.230657
 30
0.0
 10
135.722856
 20
824.230657
 30
0.0
 10
135.722856
 20
806.230657
 30
0.0
 10
171.362856
 20
806.230657
 30
0.0
 10
171.362856
 20
824.230657
 30
0.0
 10
207.722856
 20
824.230657
 30
0.0
 10
207.722856
 20
806.230657
 30
0.0
 10
243.362856
 20
806.230657
 30
0.0
 10
243.362856
 20
824.230657
 30
0.0
 10
279.722856
 20
824.230657
 30
0.0
 10
279.722856
 20
806.230657
 30
0.0
 10
315.362856
 20
806.230657
 30
0.0
 10
315.362856
 20
824.230657
 30
0.0
 10
351.722856
 20
824.230657
 30
0.0
 10
351.722856
 20
806.230657
 30
0.0
 10
387.542856
 20
806.230657
 30
0.0
 10
387.542856
 20
788.050657
 30
0.0
 10
369.542856
 20
788.050657
 30
0.0
 10
369.542856
 20
752.410656
 30
0.0
 10
387.542856
 20
752.410656
 30
0.0
 10
387.542856
 20
716.050656
 30
0.0
 10
369.542856
 20
716.050656
 30
0.0
 10
369.542856
 20
680.410656
 30
0.0
 10
387.542856
 20
680.410656
 30
0.0
 10
387.542856
 20
644.050656
 30
0.0
 10
369.542856
 20
644.050656
 30
0.0
 10
369.542856
 20
608.410656
 30
0.0
 10
387.542856
 20
608.410656
 30
0.0
 10
387.542856
 20
572.050656
 30
0.0
 10
369.542856
 20
572.050656
 30
0.0
 10
369.542856
 20
536.410656
 30
0.0
 10
387.542856
 20
536.410656
 30
0.0
 10
387.542856
 20
518.230656
 30
0.0
 10
351.722856
 20
518.230656
 30
0.0
 10
351.722856
 20
500.230656
 30
0.0
 10
315.362856
 20
500.230656
 30
0.0
 10
315.362856
 20
518.230656
 30
0.0
 10
279.722856
 20
518.230656
 30
0.0
 10
279.722856
 20
500.230656
 30
0.0
 10
243.362856
 20
500.230656
 30
0.0
 10
243.362856
 20
518.230656
 30
0.0
 10
207.722856
 20
518.230656
 30
0.0
 10
207.722856
 20
500.230656
 30
0.0
 10
171.362856
 20
500.230656
 30
0.0
 10
171.362856
 20
518.230656
 30
0.0
 10
135.722856
 20
518.230656
 30
0.0
 10
135.722856
 20
500.230656
 30
0.0
 10
99.362856
 20
500.230656
 30
0.0
 10
99.362856
 20
518.230656
 30
0.0
 10
63.542857
 20
518.230656
 30
0.0
 10
63.542857
 20
536.410656
 30
0.0
 10
81.542856
 20
536.410656
 30
0.0
 10
81.542856
 20
572.050656
 30
0.0
 10
63.542857
 20
572.050656
 30
0.0
 10
63.542857
 20
608.410656
 30
0.0
 10
81.542856
 20
608.410656
 30
0.0
 10
81.542856
 20
644.050656
 30
0.0
 10
63.542857
 20
644.050656
 30
0.0
 10
63.542857
 20
680.410656
 30
0.0
 10
81.542856
 20
680.410656
 30
0.0
 10
81.542856
 20
716.050656
 30
0.0
 10
63.542857
 20
716.050656
 30
0.0
 10
63.542857
 20
752.410656
 30
0.0
 10
81.542856
 20
752.410656
 30
0.0
 10
81.542856
 20
788.050657
 30
0.0
 10
63.542857
 20
788.050657
 30
0.0
 10
63.542857
 20
806.230657
 30
0.0
  0
LWPOLYLINE
  5
107
100
AcDbEntity
  8
box
 62
7
100
AcDbPolyline
 90
69
 70
0
 10
82.400000
 20
463.887800
 30
0.0
 10
100.220000
 20
463.887800
 30
0.0
 10
100.220000
 20
481.887800
 30
0.0
 10
136.580000
 20
481.887800
 30
0.0
 10
136.580000
 20
463.887800
 30
0.0
 10
172.220000
 20
463.887800
 30
0.0
 10
172.220000
 20
481.887800
 30
0.0
 10
208.580000
 20
481.887800
 30
0.0
 10
208.580000
 20
463.887800
 30
0.0
 10
244.220000
 20
463.887800
 30
0.0
 10
244.220000
 20
481.887800
 30
0.0
 10
280.580000
 20
481.887800
 30
0.0
 10
280.580000
 20
463.887800
 30
0.0
 10
316.220000
 20
463.887800
 30
0.0
 10
316.220000
 20
481.887800
 30
0.0
 10
352.580000
 20
481.887800
 30
0.0
 10
352.580000
 20
463.887800
 30
0.0
 10
370.400000
 20
463.887800
 30
0.0
 10
370.400000
 20
446.067800
 30
0.0
 10
388.400000
 20
446.067800
 30
0.0
 10
388.400000
 20
409.707800
 30
0.0
 10
370.400000
 20
409.707800
 30
0.0
 10
370.400000
 20
374.067800
 30
0.0
 10
388.400000
 20
374.067800
 30
0.0
 10
388.400000
 20
337.707800
 30
0.0
 10
370.400000
 20
337.707800
 30
0.0
 10
370.400000
 20
302.067800
 30
0.0
 10
388.400000
 20
302.067800
 30
0.0
 10
388.400000
 20
265.707800
 30
0.0
 10
370.400000
 20
265.707800
 30
0.0
 10
370.400000
 20
230.067800
 30
0.0
 10
388.400000
 20
230.067800
 30
0.0
 10
388.400000
 20
193.707800
 30
0.0
 10
370.400000
 20
193.707800
 30
0.0
 10
370.400000
 20
175.887800
 30
0.0
 10
352.580000
 20
175.887800
 30
0.0
 10
352.580000
 20
157.887800
 30
0.0
 10
316.220000
 20
157.887800
 30
0.0
 10
316.220000
 20
175.887800
 30
0.0
 10
280.580000
 20
175.887800
 30
0.0
 10
280.580000
 20
157.887800
 30
0.0
 10
244.220000
 20
157.887800
 30
0.0
 10
244.220000
 20
175.887800
 30
0.0
 10
208.580000
 20
175.887800
 30
0.0
 10
208.580000
 20
157.887800
 30
0.0
 10
172.220000
 20
157.887800
 30
0.0
 10
172.220000
 20
175.887800
 30
0.0
 10
136.580000
 20
175.887800
 30
0.0
 10
136.580000
 20
157.887800
 30
0.0
 10
100.220000
 20
157.887800
 30
0.0
 10
100.220000
 20
175.887800
 30
0.0
 10
82.400000
 20
175.887800
 30
0.0
 10
82.400000
 20
193.707800
 30
0.0
 10
64.400000
 20
193.707800
 30
0.0
 10
64.400000
 20
230.067800
 30
0.0
 10
82.400000
 20
230.067800
 30
0.0
 10
82.400000
 20
265.707800
 30
0.0
 10
64.400000
 20
265.707800
 30
0.0
 10
64.400000
 20
302.067800
 30
0.0
 10
82.400000
 20
302.067800
 30
0.0
 10
82.400000
 20
337.707800
 30
0.0
 10
64.400000
 20
337.707800
 30
0.0
 10
64.400000
 20
374.067800
 30
0.0
 10
82.400000
 20
374.067800
 30
0.0
 10
82.400000
 20
409.707800
 30
0.0
 10
64.400000
 20
409.707800
 30
0.0
 10
64.400000
 20
446.067800
 30
0.0
 10
82.400000
 20
446.067800
 30
0.0
 10
82.400000
 20
463.887800
 30
0.0
  0
LWPOLYLINE
  5
108
100
AcDbEntity
  8
box
 62
7
100
AcDbPolyline
 90
69
 70
0
 10
406.400000
 20
481.887800
 30
0.0
 10
442.580000
 20
481.887800
 30
0.0
 10
442.580000
 20
463.887800
 30
0.0
 10
478.220000
 20
463.887800
 30
0.0
 10
478.220000
 20
481.887800
 30
0.0
 10
514.580000
 20
481.887800
 30
0.0
 10
514.580000
 20
463.887800
 30
0.0
 10
550.220000
 20
463.887800
 30
0.0
 10
550.220000
 20
481.887800
 30
0.0
 10
586.580000
 20
481.887800
 30
0.0
 10
586.580000
 20
463.887800
 30
0.0
 10
622.220000
 20
463.887800
 30
0.0
 10
622.220000
 20
481.887800
 30
0.0
 10
658.580000
 20
481.887800
 30
0.0
 10
658.580000
 20
463.887800
 30
0.0
 10
694.220000
 20
463.887800
 30
0.0
 10
694.220000
 20
481.887800
 30
0.0
 10
730.400000
 20
481.887800
 30
0.0
 10
730.400000
 20
445.707800
 30
0.0
 10
712.400000
 20
445.707800
 30
0.0
 10
712.400000
 20
410.067800
 30
0.0
 10
730.400000
 20
410.067800
 30
0.0
 10
730.400000
 20
373.707800
 30
0.0
 10
712.400000
 20
373.707800
 30
0.0
 10
712.400000
 20
338.067800
 30
0.0
 10
730.400000
 20
338.067800
 30
0.0
 10
730.400000
 20
301.707800
 30
0.0
 10
712.400000
 20
301.707800
 30
0.0
 10
712.400000
 20
266.067800
 30
0.0
 10
730.400000
 20
266.067800
 30
0.0
 10
730.400000
 20
229.707800
 30
0.0
 10
712.400000
 20
229.707800
 30
0.0
 10
712.400000
 20
194.067800
 30
0.0
 10
730.400000
 20
194.067800
 30
0.0
 10
730.400000
 20
157.887800
 30
0.0
 10
694.220000
 20
157.887800
 30
0.0
 10
694.220000
 20
175.887800
 30
0.0
 10
658.580000
 20
175.887800
 30
0.0
 10
658.580000
 20
157.887800
 30
0.0
 10
622.220000
 20
157.887800
 30
0.0
 10
622.220000
 20
175.887800
 30
0.0
 10
586.580000
 20
175.887800
 30
0.0
 10
586.580000
 20
157.887800
 30
0.0
 10
550.220000
 20
157.887800
 30
0.0
 10
550.220000
 20
175.887800
 30
0.0
 10
514.580000
 20
175.887800
 30
0.0
 10
514.580000
 20
157.887800
 30
0.0
 10
478.220000
 20
157.887800
 30
0.0
 10
478.220000
 20
175.887800
 30
0.0
 10
442.580000
 20
175.887800
 30
0.0
 10
442.580000
 20
157.887800
 30
0.0
 10
406.400000
 20
157.887800
 30
0.0
 10
406.400000
 20
194.067800
 30
0.0
 10
424.400000
 20
194.067800
 30
0.0
 10
424.400000
 20
229.707800
 30
0.0
 10
406.400000
 20
229.707800
 30
0.0
 10
406.400000
 20
266.067800
 30
0.0
 10
424.400000
 20
266.067800
 30
0.0
 10
424.400000
 20
301.707800
 30
0.0
 10
406.400000
 20
301.707800
 30
0.0
 10
406.400000
 20
338.067800
 30
0.0
 10
424.400000
 20
338.067800
 30
0.0
 10
424.400000
 20
373.707800
 30
0.0
 10
406.400000
 20
373.707800
 30
0.0
 10
406.400000
 20
410.067800
 30
0.0
 10
424.400000
 20
410.067800
 30
0.0
 10
424.400000
 20
445.707800
 30
0.0
 10
406.400000
 20
445.707800
 30
0.0
 10
406.400000
 20
481.887800
 30
0.0
  0
LWPOLYLINE
  5
109
100
AcDbEntity
  8
box
 62
7
100
AcDbPolyline
 90
69
 70
0
 10
766.400000
 20
463.887800
 30
0.0
 10
784.220000
 20
463.887800
 30
0.0
 10
784.220000
 20
481.887800
 30
0.0
 10
820.580000
 20
481.887800
 30
0.0
 10
820.580000
 20
463.887800
 30
0.0
 10
856.220000
 20
463.887800
 30
0.0
 10
856.220000
 20
481.887800
 30
0.0
 10
892.580000
 20
481.887800
 30
0.0
 10
892.580000
 20
463.887800
 30
0.0
 10
928.220000
 20
463.887800
 30
0.0
 10
928.220000
 20
481.887800
 30
0.0
 10
964.580000
 20
481.887800
 30
0.0
 10
964.580000
 20
463.887800
 30
0.0
 10
1000.220000
 20
463.887800
 30
0.0
 10
1000.220000
 20
481.887800
 30
0.0
 10
1036.580000
 20
481.887800
 30
0.0
 10
1036.580000
 20
463.887800
 30
0.0
 10
1054.400000
 20
463.887800
 30
0.0
 10
1054.400000
 20
446.067800
 30
0.0
 10
1072.400000
 20
446.067800
 30
0.0
 10
1072.400000
 20
409.707800
 30
0.0
 10
1054.400000
 20
409.707800
 30
0.0
 10
1054.400000
 20
374.067800
 30
0.0
 10
1072.400000
 20
374.067800
 30
0.0
 10
1072.400000
 20
337.707800
 30
0.0
 10
1054.400000
 20
337.707800
 30
0.0
 10
1054.400000
 20
302.067800
 30
0.0
 10
1072.400000
 20
302.067800
 30
0.0
 10
1072.400000
 20
265.707800
 30
0.0
 10
1054.400000
 20
265.707800
 30
0.0
 10
1054.400000
 20
230.067800
 30
0.0
 10
1072.400000
 20
230.067800
 30
0.0
 10
1072.400000
 20
193.707800
 30
0.0
 10
1054.400000
 20
193.707800
 30
0.0
 10
1054.400000
 20
175.887800
 30
0.0
 10
1036.580000
 20
175.887800
 30
0.0
 10
1036.580000
 20
157.887800
 30
0.0
 10
1000.220000
 20
157.887800
 30
0.0
 10
1000.220000
 20
175.887800
 30
0.0
 10
964.580000
 20
175.887800
 30
0.0
 10
964.580000
 20
157.887800
 30
0.0
 10
928.220000
 20
157.887800
 30
0.0
 10
928.220000
 20
175.887800
 30
0.0
 10
892.580000
 20
175.887800
 30
0.0
 10
892.580000
 20
157.887800
 30
0.0
 10
856.220000
 20
157.887800
 30
0.0
 10
856.220000
 20
175.887800
 30
0.0
 10
820.580000
 20
175.887800
 30
0.0
 10
820.580000
 20
157.887800
 30
0.0
 10
784.220000
 20
157.887800
 30
0.0
 10
784.220000
 20
175.887800
 30
0.0
 10
766.400000
 20
175.887800
 30
0.0
 10
766.400000
 20
193.707800
 30
0.0
 10
748.400000
 20
193.707800
 30
0.0
 10
748.400000
 20
230.067800
 30
0.0
 10
766.400000
 20
230.067800
 30
0.0
 10
766.400000
 20
265.707800
 30
0.0
 10
748.400000
 20
265.707800
 30
0.0
 10
748.400000
 20
302.067800
 30
0.0
 10
766.400000
 20
302.067800
 30
0.0
 10
766.400000
 20
337.707800
 30
0.0
 10
748.400000
 20
337.707800
 30
0.0
 10
748.400000
 20
374.067800
 30
0.0
 10
766.400000
 20
374.067800
 30
0.0
 10
766.400000
 20
409.707800
 30
0.0
 10
748.400000
 20
409.707800
 30
0.0
 10
748.400000
 20
446.067800
 30
0.0
 10
766.400000
 20
446.067800
 30
0.0
 10
766.400000
 20
463.887800
 30
0.0
  0
LWPOLYLINE
  5
10a
100
AcDbEntity
  8
box
 62
7
100
AcDbPolyline
 90
69
 70
0
 10
749.600000
 20
824.287800
 30
0.0
 10
785.780000
 20
824.287800
 30
0.0
 10
785.780000
 20
806.287800
 30
0.0
 10
821.420000
 20
806.287800
 30
0.0
 10
821.420000
 20
824.287800
 30
0.0
 10
857.780000
 20
824.287800
 30
0.0
 10
857.780000
 20
806.287800
 30
0.0
 10
893.420000
 20
806.287800
 30
0.0
 10
893.420000
 20
824.287800
 30
0.0
 10
929.780000
 20
824.287800
 30
0.0
 10
929.780000
 20
806.287800
 30
0.0
 10
965.420000
 20
806.287800
 30
0.0
 10
965.420000
 20
824.287800
 30
0.0
 10
1001.780000
 20
824.287800
 30
0.0
 10
1001.780000
 20
806.287800
 30
0.0
 10
1037.420000
 20
806.287800
 30
0.0
 10
1037.420000
 20
824.287800
 30
0.0
 10
1073.600000
 20
824.287800
 30
0.0
 10
1073.600000
 20
788.107800
 30
0.0
 10
1055.600000
 20
788.107800
 30
0.0
 10
1055.600000
 20
752.467800
 30
0.0
 10
1073.600000
 20
752.467800
 30
0.0
 10
1073.600000
 20
716.107800
 30
0.0
 10
1055.600000
 20
716.107800
 30
0.0
 10
1055.600000
 20
680.467800
 30
0.0
 10
1073.600000
 20
680.467800
 30
0.0
 10
1073.600000
 20
644.107800
 30
0.0
 10
1055.600000
 20
644.107800
 30
0.0
 10
1055.600000
 20
608.467800
 30
0.0
 10
1073.600000
 20
608.467800
 30
0.0
 10
1073.600000
 20
572.107800
 30
0.0
 10
1055.600000
 20
572.107800
 30
0.0
 10
1055.600000
 20
536.467800
 30
0.0
 10
1073.600000
 20
536.467800
 30
0.0
 10
1073.600000
 20
500.287800
 30
0.0
 10
1037.420000
 20
500.287800
 30
0.0
 10
1037.420000
 20
518.287800
 30
0.0
 10
1001.780000
 20
518.287800
 30
0.0
 10
1001.780000
 20
500.287800
 30
0.0
 10
965.420000
 20
500.287800
 30
0.0
 10
965.420000
 20
518.287800
 30
0.0
 10
929.780000
 20
518.287800
 30
0.0
 10
929.780000
 20
500.287800
 30
0.0
 10
893.420000
 20
500.287800
 30
0.0
 10
893.420000
 20
518.287800
 30
0.0
 10
857.780000
 20
518.287800
 30
0.0
 10
857.780000
 20
500.287800
 30
0.0
 10
821.420000
 20
500.287800
 30
0.0
 10
821.420000
 20
518.287800
 30
0.0
 10
785.780000
 20
518.287800
 30
0.0
 10
785.780000
 20
500.287800
 30
0.0
 10
749.600000
 20
500.287800
 30
0.0
 10
749.600000
 20
536.467800
 30
0.0
 10
767.600000
 20
536.467800
 30
0.0
 10
767.600000
 20
572.107800
 30
0.0
 10
749.600000
 20
572.107800
 30
0.0
 10
749.600000
 20
608.467800
 30
0.0
 10
767.600000
 20
608.467800
 30
0.0
 10
767.600000
 20
644.107800
 30
0.0
 10
749.600000
 20
644.107800
 30
0.0
 10
749.600000
 20
680.467800
 30
0.0
 10
767.600000
 20
680.467800
 30
0.0
 10
767.600000
 20
716.107800
 30
0.0
 10
749.600000
 20
716.107800
 30
0.0
 10
749.600000
 20
752.467800
 30
0.0
 10
767.600000
 20
752.467800
 30
0.0
 10
767.600000
 20
788.107800
 30
0.0
 10
749.600000
 20
788.107800
 30
0.0
 10
749.600000
 20
824.287800
 30
0.0
  0
SPLINE
  5
10b
100
AcDbEntity
  8
box
 62
5
100
AcDbSpline
 70
8
 71
3
 72
8
 73
4
 74
0
 40
0
 40
0
 40
0
 40
0
 40
1
 40
1
 40
1
 40
1
 10
762.499260
 20
735.193220
 30
0.0
 10
762.499260
 20
733.911103
 30
0.0
 10
761.459898
 20
732.871747
 30
0.0
 10
760.177787
 20
732.871747
 30
0.0
  0
SPLINE
  5
10c
100
AcDbEntity
  8
box
 62
5
100
AcDbSpline
 70
8
 71
3
 72
8
 73
4
 74
0
 40
0
 40
0
 40
0
 40
0
 40
1
 40
1
 40
1
 40
1
 10
760.177787
 20
732.871747
 30
0.0
 10
758.895676
 20
732.871747
 30
0.0
 10
757.856314
 20
733.911103
 30
0.0
 10
757.856314
 20
735.193220
 30
0.0
  0
SPLINE
  5
10d
100
AcDbEntity
  8
box
 62
5
100
AcDbSpline
 70
8
 71
3
 72
8
 73
4
 74
0
 40
0
 40
0
 40
0
 40
0
 40
1
 40
1
 40
1
 40
1
 10
757.856314
 20
735.193220
 30
0.0
 10
757.856314
 20
736.475338
 30
0.0
 10
758.895676
 20
737.514693
 30
0.0
 10
760.177787
 20
737.514693
 30
0.0
  0
SPLINE
  5
10e
100
AcDbEntity
  8
box
 62
5
100
AcDbSpline
 70
8
 71
3
 72
8
 73
4
 74
0
 40
0
 40
0
 40
0
 40
0
 40
1
 40
1
 40
1
 40
1
 10
760.177787
 20
737.514693
 30
0.0
 10
761.459898
 20
737.514693
 30
0.0
 10
762.499260
 20
736.475338
 30
0.0
 10
762.499260
 20
735.193220
 30
0.0
  0
LWPOLYLINE
  5
10f
100
AcDbEntity
  8
box
 62
7
100
AcDbPolyline
 90
69
 70
0
 10
406.400000
 20
805.887800
 30
0.0
 10
442.220000
 20
805.887800
 30
0.0
 10
442.220000
 20
823.887800
 30
0.0
 10
478.580000
 20
823.887800
 30
0.0
 10
478.580000
 20
805.887800
 30
0.0
 10
514.220000
 20
805.887800
 30
0.0
 10
514.220000
 20
823.887800
 30
0.0
 10
550.580000
 20
823.887800
 30
0.0
 10
550.580000
 20
805.887800
 30
0.0
 10
586.220000
 20
805.887800
 30
0.0
 10
586.220000
 20
823.887800
 30
0.0
 10
622.580000
 20
823.887800
 30
0.0
 10
622.580000
 20
805.887800
 30
0.0
 10
658.220000
 20
805.887800
 30
0.0
 10
658.220000
 20
823.887800
 30
0.0
 10
694.580000
 20
823.887800
 30
0.0
 10
694.580000
 20
805.887800
 30
0.0
 10
730.400000
 20
805.887800
 30
0.0
 10
730.400000
 20
787.707800
 30
0.0
 10
712.400000
 20
787.707800
 30
0.0
 10
712.400000
 20
752.067800
 30
0.0
 10
730.400000
 20
752.067800
 30
0.0
 10
730.400000
 20
715.707800
 30
0.0
 10
712.400000
 20
715.707800
 30
0.0
 10
712.400000
 20
680.067800
 30
0.0
 10
730.400000
 20
680.067800
 30
0.0
 10
730.400000
 20
643.707800
 30
0.0
 10
712.400000
 20
643.707800
 30
0.0
 10
712.400000
 20
608.067800
 30
0.0
 10
730.400000
 20
608.067800
 30
0.0
 10
730.400000
 20
571.707800
 30
0.0
 10
712.400000
 20
571.707800
 30
0.0
 10
712.400000
 20
536.067800
 30
0.0
 10
730.400000
 20
536.067800
 30
0.0
 10
730.400000
 20
517.887800
 30
0.0
 10
694.580000
 20
517.887800
 30
0.0
 10
694.580000
 20
499.887800
 30
0.0
 10
658.220000
 20
499.887800
 30
0.0
 10
658.220000
 20
517.887800
 30
0.0
 10
622.580000
 20
517.887800
 30
0.0
 10
622.580000
 20
499.887800
 30
0.0
 10
586.220000
 20
499.887800
 30
0.0
 10
586.220000
 20
517.887800
 30
0.0
 10
550.580000
 20
517.887800
 30
0.0
 10
550.580000
 20
499.887800
 30
0.0
 10
514.220000
 20
499.887800
 30
0.0
 10
514.220000
 20
517.887800
 30
0.0
 10
478.580000
 20
517.887800
 30
0.0
 10
478.580000
 20
499.887800
 30
0.0
 10
442.220000
 20
499.887800
 30
0.0
 10
442.220000
 20
517.887800
 30
0.0
 10
406.400000
 20
517.887800
 30
0.0
 10
406.400000
 20
536.067800
 30
0.0
 10
424.400000
 20
536.067800
 30
0.0
 10
424.400000
 20
571.707800
 30
0.0
 10
406.400000
 20
571.707800
 30
0.0
 10
406.400000
 20
608.067800
 30
0.0
 10
424.400000
 20
608.067800
 30
0.0
 10
424.400000
 20
643.707800
 30
0.0
 10
406.400000
 20
643.707800
 30
0.0
 10
406.400000
 20
680.067800
 30
0.0
 10
424.400000
 20
680.067800
 30
0.0
 10
424.400000
 20
715.707800
 30
0.0
 10
406.400000
 20
715.707800
 30
0.0
 10
406.400000
 20
752.067800
 30
0.0
 10
424.400000
 20
752.067800
 30
0.0
 10
424.400000
 20
787.707800
 30
0.0
 10
406.400000
 20
787.707800
 30
0.0
 10
406.400000
 20
805.887800
 30
0.0
  0
SPLINE
  5
110
100
AcDbEntity
  8
box
 62
5
100
AcDbSpline
 70
8
 71
3
 72
8
 73
4
 74
0
 40
0
 40
0
 40
0
 40
0
 40
1
 40
1
 40
1
 40
1
 10
762.499260
 20
591.193219
 30
0.0
 10
762.499260
 20
589.911101
 30
0.0
 10
761.459898
 20
588.871746
 30
0.0
 10
760.177787
 20
588.871746
 30
0.0
  0
SPLINE
  5
111
100
AcDbEntity
  8
box
 62
5
100
AcDbSpline
 70
8
 71
3
 72
8
 73
4
 74
0
 40
0
 40
0
 40
0
 40
0
 40
1
 40
1
 40
1
 40
1
 10
760.177787
 20
588.871746
 30
0.0
 10
758.895676
 20
588.871746
 30
0.0
 10
757.856314
 20
589.911101
 30
0.0
 10
757.856314
 20
591.193219
 30
0.0
  0
SPLINE
  5
112
100
AcDbEntity
  8
box
 62
5
100
AcDbSpline
 70
8
 71
3
 72
8
 73
4
 74
0
 40
0
 40
0
 40
0
 40
0
 40
1
 40
1
 40
1
 40
1
 10
757.856314
 20
591.193219
 30
0.0
 10
757.856314
 20
592.475336
 30
0.0
 10
758.895676
 20
593.514692
 30
0.0
 10
760.177787
 20
593.514692
 30
0.0
  0
SPLINE
  5
113
100
AcDbEntity
  8
box
 62
5
100
AcDbSpline
 70
8
 71
3
 72
8
 73
4
 74
0
 40
0
 40
0
 40
0
 40
0
 40
1
 40
1
 40
1
 40
1
 10
760.177787
 20
593.514692
 30
0.0
 10
761.459898
 20
593.514692
 30
0.0
 10
762.499260
 20
592.475336
 30
0.0
 10
762.499260
 20
591.193219
 30
0.0
  0
LWPOLYLINE
  5
114
100
AcDbEntity
  8
box
 62
5
100
AcDbPolyline
 90
2
 70
0
 10
762.499260
 20
735.193220
 30
0.0
 10
762.499260
 20
735.193220
 30
0.0
  0
SPLINE
  5
115
100
AcDbEntity
  8
box
 62
5
100
AcDbSpline
 70
8
 71
3
 72
8
 73
4
 74
0
 40
0
 40
0
 40
0
 40
0
 40
1
 40
1
 40
1
 40
1
 10
1066.499264
 20
591.193219
 30
0.0
 10
1066.499264
 20
589.911101
 30
0.0
 10
1065.459902
 20
588.871746
 30
0.0
 10
1064.177791
 20
588.871746
 30
0.0
  0
SPLINE
  5
116
100
AcDbEntity
  8
box
 62
5
100
AcDbSpline
 70
8
 71
3
 72
8
 73
4
 74
0
 40
0
 40
0
 40
0
 40
0
 40
1
 40
1
 40
1
 40
1
 10
1064.177791
 20
588.871746
 30
0.0
 10
1062.895680
 20
588.871746
 30
0.0
 10
1061.856318
 20
589.911101
 30
0.0
 10
1061.856318
 20
591.193219
 30
0.0
  0
SPLINE
  5
117
100
AcDbEntity
  8
box
 62
5
100
AcDbSpline
 70
8
 71
3
 72
8
 73
4
 74
0
 40
0
 40
0
 40
0
 40
0
 40
1
 40
1
 40
1
 40
1
 10
1061.856318
 20
591.193219
 30
0.0
 10
1061.856318
 20
592.475336
 30
0.0
 10
1062.895680
 20
593.514692
 30
0.0
 10
1064.177791
 20
593.514692
 30
0.0
  0
SPLINE
  5
118
100
AcDbEntity
  8
box
 62
5
100
AcDbSpline
 70
8
 71
3
 72
8
 73
4
 74
0
 40
0
 40
0
 40
0
 40
0
 40
1
 40
1
 40
1
 40
1
 10
1064.177791
 20
593.514692
 30
0.0
 10
1065.459902
 20
593.514692
 30
0.0
 10
1066.499264
 20
592.475336
 30
0.0
 10
1066.499264
 20
591.193219
 30
0.0
  0
LWPOLYLINE
  5
119
100
AcDbEntity
  8
box
 62
5
100
AcDbPolyline
 90
2
 70
0
 10
762.499260
 20
591.193219
 30
0.0
 10
762.499260
 20
591.193219
 30
0.0
  0
SPLINE
  5
11a
100
AcDbEntity
  8
box
 62
5
100
AcDbSpline
 70
8
 71
3
 72
8
 73
4
 74
0
 40
0
 40
0
 40
0
 40
0
 40
1
 40
1
 40
1
 40
1
 10
1066.499264
 20
735.193219
 30
0.0
 10
1066.499264
 20
733.911101
 30
0.0
 10
1065.459902
 20
732.871746
 30
0.0
 10
1064.177791
 20
732.871746
 30
0.0
  0
SPLINE
  5
11b
100
AcDbEntity
  8
box
 62
5
100
AcDbSpline
 70
8
 71
3
 72
8
 73
4
 74
0
 40
0
 40
0
 40
0
 40
0
 40
1
 40
1
 40
1
 40
1
 10
1064.177791
 20
732.871746
 30
0.0
 10
1062.895680
 20
732.871746
 30
0.0
 10
1061.856318
 20
733.911101
 30
0.0
 10
1061.856318
 20
735.193219
 30
0.0
  0
SPLINE
  5
11c
100
AcDbEntity
  8
box
 62
5
100
AcDbSpline
 70
8
 71
3
 72
8
 73
4
 74
0
 40
0
 40
0
 40
0
 40
0
 40
1
 40
1
 40
1
 40
1
 10
1061.856318
 20
735.193219
 30
0.0
 10
1061.856318
 20
736.475336
 30
0.0
 10
1062.895680
 20
737.514692
 30
0.0
 10
1064.177791
 20
737.514692
 30
0.0
  0
SPLINE
  5
11d
100
AcDbEntity
  8
box
 62
5
100
AcDbSpline
 70
8
 71
3
 72
8
 73
4
 74
0
 40
0
 40
0
 40
0
 40
0
 40
1
 40
1
 40
1
 40
1
 10
1064.177791
 20
737.514692
 30
0.0
 10
1065.459902
 20
737.514692
 30
0.0
 10
1066.499264
 20
736.475336
 30
0.0
 10
1066.499264
 20
735.193219
 30
0.0
  0
LWPOLYLINE
  5
11e
100
AcDbEntity
  8
box
 62
5
100
AcDbPolyline
 90
2
 70
0
 10
1066.499264
 20
591.193219
 30
0.0
 10
1066.499264
 20
591.193219
 30
0.0
  0
SPLINE
  5
11f
100
AcDbEntity
  8
holes
 62
5
100
AcDbSpline
 70
8
 71
3
 72
8
 73
4
 74
0
 40
0
 40
0
 40
0
 40
0
 40
1
 40
1
 40
1
 40
1
 10
648.357945
 20
244.273629
 30
0.0
 10
648.357945
 20
242.721747
 30
0.0
 10
647.530026
 20
241.287749
 30
0.0
 10
646.186057
 20
240.511808
 30
0.0
  0
SPLINE
  5
120
100
AcDbEntity
  8
holes
 62
5
100
AcDbSpline
 70
8
 71
3
 72
8
 73
4
 74
0
 40
0
 40
0
 40
0
 40
0
 40
1
 40
1
 40
1
 40
1
 10
646.186057
 20
240.511808
 30
0.0
 10
644.842088
 20
239.735867
 30
0.0
 10
643.186249
 20
239.735867
 30
0.0
 10
641.842280
 20
240.511808
 30
0.0
  0
SPLINE
  5
121
100
AcDbEntity
  8
holes
 62
5
100
AcDbSpline
 70
8
 71
3
 72
8
 73
4
 74
0
 40
0
 40
0
 40
0
 40
0
 40
1
 40
1
 40
1
 40
1
 10
641.842280
 20
240.511808
 30
0.0
 10
640.498311
 20
241.287749
 30
0.0
 10
639.670392
 20
242.721747
 30
0.0
 10
639.670393
 20
244.273629
 30
0.0
  0
SPLINE
  5
122
100
AcDbEntity
  8
holes
 62
5
100
AcDbSpline
 70
8
 71
3
 72
8
 73
4
 74
0
 40
0
 40
0
 40
0
 40
0
 40
1
 40
1
 40
1
 40
1
 10
639.670393
 20
244.273629
 30
0.0
 10
639.670393
 20
245.825511
 30
0.0
 10
640.498312
 20
247.259509
 30
0.0
 10
641.842281
 20
248.035450
 30
0.0
  0
SPLINE
  5
123
100
AcDbEntity
  8
holes
 62
5
100
AcDbSpline
 70
8
 71
3
 72
8
 73
4
 74
0
 40
0
 40
0
 40
0
 40
0
 40
1
 40
1
 40
1
 40
1
 10
641.842281
 20
248.035450
 30
0.0
 10
643.186251
 20
248.811391
 30
0.0
 10
644.842089
 20
248.811391
 30
0.0
 10
646.186058
 20
248.035450
 30
0.0
  0
SPLINE
  5
124
100
AcDbEntity
  8
holes
 62
5
100
AcDbSpline
 70
8
 71
3
 72
8
 73
4
 74
0
 40
0
 40
0
 40
0
 40
0
 40
1
 40
1
 40
1
 40
1
 10
646.186058
 20
248.035450
 30
0.0
 10
647.530027
 20
247.259509
 30
0.0
 10
648.357946
 20
245.825511
 30
0.0
 10
648.357946
 20
244.273629
 30
0.0
  0
LWPOLYLINE
  5
125
100
AcDbEntity
  8
box
 62
5
100
AcDbPolyline
 90
2
 70
0
 10
1066.499264
 20
735.193219
 30
0.0
 10
1066.499264
 20
735.193219
 30
0.0
  0
SPLINE
  5
126
100
AcDbEntity
  8
holes
 62
5
100
AcDbSpline
 70
8
 71
3
 72
8
 73
4
 74
0
 40
0
 40
0
 40
0
 40
0
 40
1
 40
1
 40
1
 40
1
 10
497.129607
 20
395.501971
 30
0.0
 10
497.129607
 20
393.950089
 30
0.0
 10
496.301687
 20
392.516091
 30
0.0
 10
494.957718
 20
391.740150
 30
0.0
  0
SPLINE
  5
127
100
AcDbEntity
  8
holes
 62
5
100
AcDbSpline
 70
8
 71
3
 72
8
 73
4
 74
0
 40
0
 40
0
 40
0
 40
0
 40
1
 40
1
 40
1
 40
1
 10
494.957718
 20
391.740150
 30
0.0
 10
493.613749
 20
390.964209
 30
0.0
 10
491.957911
 20
390.964209
 30
0.0
 10
490.613942
 20
391.740150
 30
0.0
  0
SPLINE
  5
128
100
AcDbEntity
  8
holes
 62
5
100
AcDbSpline
 70
8
 71
3
 72
8
 73
4
 74
0
 40
0
 40
0
 40
0
 40
0
 40
1
 40
1
 40
1
 40
1
 10
490.613942
 20
391.740150
 30
0.0
 10
489.269973
 20
392.516091
 30
0.0
 10
488.442054
 20
393.950089
 30
0.0
 10
488.442055
 20
395.501971
 30
0.0
  0
SPLINE
  5
129
100
AcDbEntity
  8
holes
 62
5
100
AcDbSpline
 70
8
 71
3
 72
8
 73
4
 74
0
 40
0
 40
0
 40
0
 40
0
 40
1
 40
1
 40
1
 40
1
 10
488.442055
 20
395.501971
 30
0.0
 10
488.442055
 20
397.053853
 30
0.0
 10
489.269974
 20
398.487851
 30
0.0
 10
490.613943
 20
399.263791
 30
0.0
  0
SPLINE
  5
12a
100
AcDbEntity
  8
holes
 62
5
100
AcDbSpline
 70
8
 71
3
 72
8
 73
4
 74
0
 40
0
 40
0
 40
0
 40
0
 40
1
 40
1
 40
1
 40
1
 10
490.613943
 20
399.263791
 30
0.0
 10
491.957912
 20
400.039732
 30
0.0
 10
493.613750
 20
400.039732
 30
0.0
 10
494.957720
 20
399.263791
 30
0.0
  0
SPLINE
  5
12b
100
AcDbEntity
  8
holes
 62
5
100
AcDbSpline
 70
8
 71
3
 72
8
 73
4
 74
0
 40
0
 40
0
 40
0
 40
0
 40
1
 40
1
 40
1
 40
1
 10
494.957720
 20
399.263791
 30
0.0
 10
496.301689
 20
398.487851
 30
0.0
 10
497.129608
 20
397.053853
 30
0.0
 10
497.129608
 20
395.501971
 30
0.0
  0
LWPOLYLINE
  5
12c
100
AcDbEntity
  8
holes
 62
5
100
AcDbPolyline
 90
2
 70
0
 10
648.357946
 20
244.273629
 30
0.0
 10
648.357947
 20
244.273629
 30
0.0
  0
SPLINE
  5
12d
100
AcDbEntity
  8
holes
 62
5
100
AcDbSpline
 70
8
 71
3
 72
8
 73
4
 74
0
 40
0
 40
0
 40
0
 40
0
 40
1
 40
1
 40
1
 40
1
 10
648.357945
 20
395.501971
 30
0.0
 10
648.357945
 20
393.950089
 30
0.0
 10
647.530026
 20
392.516091
 30
0.0
 10
646.186057
 20
391.740150
 30
0.0
  0
SPLINE
  5
12e
100
AcDbEntity
  8
holes
 62
5
100
AcDbSpline
 70
8
 71
3
 72
8
 73
4
 74
0
 40
0
 40
0
 40
0
 40
0
 40
1
 40
1
 40
1
 40
1
 10
646.186057
 20
391.740150
 30
0.0
 10
644.842088
 20
390.964209
 30
0.0
 10
643.186249
 20
390.964209
 30
0.0
 10
641.842280
 20
391.740150
 30
0.0
  0
SPLINE
  5
12f
100
AcDbEntity
  8
holes
 62
5
100
AcDbSpline
 70
8
 71
3
 72
8
 73
4
 74
0
 40
0
 40
0
 40
0
 40
0
 40
1
 40
1
 40
1
 40
1
 10
641.842280
 20
391.740150
 30
0.0
 10
640.498311
 20
392.516091
 30
0.0
 10
639.670392
 20
393.950089
 30
0.0
 10
639.670393
 20
395.501971
 30
0.0
  0
SPLINE
  5
130
100
AcDbEntity
  8
holes
 62
5
100
AcDbSpline
 70
8
 71
3
 72
8
 73
4
 74
0
 40
0
 40
0
 40
0
 40
0
 40
1
 40
1
 40
1
 40
1
 10
639.670393
 20
395.501971
 30
0.0
 10
639.670393
 20
397.053853
 30
0.0
 10
640.498312
 20
398.487851
 30
0.0
 10
641.842281
 20
399.263791
 30
0.0
  0
SPLINE
  5
131
100
AcDbEntity
  8
holes
 62
5
100
AcDbSpline
 70
8
 71
3
 72
8
 73
4
 74
0
 40
0
 40
0
 40
0
 40
0
 40
1
 40
1
 40
1
 40
1
 10
641.842281
 20
399.263791
 30
0.0
 10
643.186251
 20
400.039732
 30
0.0
 10
644.842089
 20
400.039732
 30
0.0
 10
646.186058
 20
399.263791
 30
0.0
  0
SPLINE
  5
132
100
AcDbEntity
  8
holes
 62
5
100
AcDbSpline
 70
8
 71
3
 72
8
 73
4
 74
0
 40
0
 40
0
 40
0
 40
0
 40
1
 40
1
 40
1
 40
1
 10
646.186058
 20
399.263791
 30
0.0
 10
647.530027
 20
398.487851
 30
0.0
 10
648.357946
 20
397.053853
 30
0.0
 10
648.357946
 20
395.501971
 30
0.0
  0
LWPOLYLINE
  5
133
100
AcDbEntity
  8
holes
 62
5
100
AcDbPolyline
 90
2
 70
0
 10
497.129608
 20
395.501971
 30
0.0
 10
497.129609
 20
395.501971
 30
0.0
  0
SPLINE
  5
134
100
AcDbEntity
  8
holes
 62
5
100
AcDbSpline
 70
8
 71
3
 72
8
 73
4
 74
0
 40
0
 40
0
 40
0
 40
0
 40
1
 40
1
 40
1
 40
1
 10
648.357945
 20
244.273629
 30
0.0
 10
648.357945
 20
242.721747
 30
0.0
 10
647.530026
 20
241.287749
 30
0.0
 10
646.186057
 20
240.511808
 30
0.0
  0
SPLINE
  5
135
100
AcDbEntity
  8
holes
 62
5
100
AcDbSpline
 70
8
 71
3
 72
8
 73
4
 74
0
 40
0
 40
0
 40
0
 40
0
 40
1
 40
1
 40
1
 40
1
 10
646.186057
 20
240.511808
 30
0.0
 10
644.842088
 20
239.735867
 30
0.0
 10
643.186249
 20
239.735867
 30
0.0
 10
641.842280
 20
240.511808
 30
0.0
  0
SPLINE
  5
136
100
AcDbEntity
  8
holes
 62
5
100
AcDbSpline
 70
8
 71
3
 72
8
 73
4
 74
0
 40
0
 40
0
 40
0
 40
0
 40
1
 40
1
 40
1
 40
1
 10
641.842280
 20
240.511808
 30
0.0
 10
640.498311
 20
241.287749
 30
0.0
 10
639.670392
 20
242.721747
 30
0.0
 10
639.670393
 20
244.273629
 30
0.0
  0
SPLINE
  5
137
100
AcDbEntity
  8
holes
 62
5
100
AcDbSpline
 70
8
 71
3
 72
8
 73
4
 74
0
 40
0
 40
0
 40
0
 40
0
 40
1
 40
1
 40
1
 40
1
 10
639.670393
 20
244.273629
 30
0.0
 10
639.670393
 20
245.825511
 30
0.0
 10
640.498312
 20
247.259509
 30
0.0
 10
641.842281
 20
248.035450
 30
0.0
  0
SPLINE
  5
138
100
AcDbEntity
  8
holes
 62
5
100
AcDbSpline
 70
8
 71
3
 72
8
 73
4
 74
0
 40
0
 40
0
 40
0
 40
0
 40
1
 40
1
 40
1
 40
1
 10
641.842281
 20
248.035450
 30
0.0
 10
643.186251
 20
248.811391
 30
0.0
 10
644.842089
 20
248.811391
 30
0.0
 10
646.186058
 20
248.035450
 30
0.0
  0
SPLINE
  5
139
100
AcDbEntity
  8
holes
 62
5
100
AcDbSpline
 70
8
 71
3
 72
8
 73
4
 74
0
 40
0
 40
0
 40
0
 40
0
 40
1
 40
1
 40
1
 40
1
 10
646.186058
 20
248.035450
 30
0.0
 10
647.530027
 20
247.259509
 30
0.0
 10
648.357946
 20
245.825511
 30
0.0
 10
648.357946
 20
244.273629
 30
0.0
  0
LWPOLYLINE
  5
13a
100
AcDbEntity
  8
holes
 62
5
100
AcDbPolyline
 90
2
 70
0
 10
648.357946
 20
395.501971
 30
0.0
 10
648.357947
 20
395.501971
 30
0.0
  0
SPLINE
  5
13b
100
AcDbEntity
  8
holes
 62
5
100
AcDbSpline
 70
8
 71
3
 72
8
 73
4
 74
0
 40
0
 40
0
 40
0
 40
0
 40
1
 40
1
 40
1
 40
1
 10
497.129605
 20
244.273629
 30
0.0
 10
497.129605
 20
242.721747
 30
0.0
 10
496.301686
 20
241.287749
 30
0.0
 10
494.957717
 20
240.511808
 30
0.0
  0
SPLINE
  5
13c
100
AcDbEntity
  8
holes
 62
5
100
AcDbSpline
 70
8
 71
3
 72
8
 73
4
 74
0
 40
0
 40
0
 40
0
 40
0
 40
1
 40
1
 40
1
 40
1
 10
494.957717
 20
240.511808
 30
0.0
 10
493.613748
 20
239.735867
 30
0.0
 10
491.957909
 20
239.735867
 30
0.0
 10
490.613940
 20
240.511808
 30
0.0
  0
SPLINE
  5
13d
100
AcDbEntity
  8
holes
 62
5
100
AcDbSpline
 70
8
 71
3
 72
8
 73
4
 74
0
 40
0
 40
0
 40
0
 40
0
 40
1
 40
1
 40
1
 40
1
 10
490.613940
 20
240.511808
 30
0.0
 10
489.269971
 20
241.287749
 30
0.0
 10
488.442052
 20
242.721747
 30
0.0
 10
488.442053
 20
244.273629
 30
0.0
  0
SPLINE
  5
13e
100
AcDbEntity
  8
holes
 62
5
100
AcDbSpline
 70
8
 71
3
 72
8
 73
4
 74
0
 40
0
 40
0
 40
0
 40
0
 40
1
 40
1
 40
1
 40
1
 10
488.442053
 20
244.273629
 30
0.0
 10
488.442053
 20
245.825511
 30
0.0
 10
489.269972
 20
247.259509
 30
0.0
 10
490.613941
 20
248.035450
 30
0.0
  0
SPLINE
  5
13f
100
AcDbEntity
  8
holes
 62
5
100
AcDbSpline
 70
8
 71
3
 72
8
 73
4
 74
0
 40
0
 40
0
 40
0
 40
0
 40
1
 40
1
 40
1
 40
1
 10
490.613941
 20
248.035450
 30
0.0
 10
491.957911
 20
248.811391
 30
0.0
 10
493.613749
 20
248.811391
 30
0.0
 10
494.957718
 20
248.035450
 30
0.0
  0
SPLINE
  5
140
100
AcDbEntity
  8
holes
 62
5
100
AcDbSpline
 70
8
 71
3
 72
8
 73
4
 74
0
 40
0
 40
0
 40
0
 40
0
 40
1
 40
1
 40
1
 40
1
 10
494.957718
 20
248.035450
 30
0.0
 10
496.301687
 20
247.259509
 30
0.0
 10
497.129606
 20
245.825511
 30
0.0
 10
497.129606
 20
244.273629
 30
0.0
  0
LWPOLYLINE
  5
141
100
AcDbEntity
  8
holes
 62
5
100
AcDbPolyline
 90
2
 70
0
 10
648.357946
 20
244.273629
 30
0.0
 10
648.357947
 20
244.273629
 30
0.0
  0
LWPOLYLINE
  5
142
100
AcDbEntity
  8
holes
 62
5
100
AcDbPolyline
 90
2
 70
0
 10
497.129606
 20
244.273629
 30
0.0
 10
497.129607
 20
244.273629
 30
0.0
  0
LWPOLYLINE
  5
143
100
AcDbEntity
  8
holes
 62
5
100
AcDbPolyline
 90
5
 70
0
 10
550.746776
 20
348.325880
 30
0.0
 10
586.053276
 20
348.325880
 30
0.0
 10
586.053276
 20
291.449684
 30
0.0
 10
550.746776
 20
291.449684
 30
0.0
 10
550.746776
 20
348.325880
 30
0.0
  0
SPLINE
  5
144
100
AcDbEntity
  8
holes
 62
5
100
AcDbSpline
 70
8
 71
3
 72
8
 73
4
 74
0
 40
0
 40
0
 40
0
 40
0
 40
1
 40
1
 40
1
 40
1
 10
685.281961
 20
433.315040
 30
0.0
 10
685.283751
 20
430.399803
 30
0.0
 10
683.729519
 20
427.705246
 30
0.0
 10
681.205147
 20
426.247110
 30
0.0
  0
SPLINE
  5
145
100
AcDbEntity
  8
holes
 62
5
100
AcDbSpline
 70
8
 71
3
 72
8
 73
4
 74
0
 40
0
 40
0
 40
0
 40
0
 40
1
 40
1
 40
1
 40
1
 10
681.205147
 20
426.247110
 30
0.0
 10
678.680775
 20
424.788974
 30
0.0
 10
675.570104
 20
424.788974
 30
0.0
 10
673.045732
 20
426.247110
 30
0.0
  0
SPLINE
  5
146
100
AcDbEntity
  8
holes
 62
5
100
AcDbSpline
 70
8
 71
3
 72
8
 73
4
 74
0
 40
0
 40
0
 40
0
 40
0
 40
1
 40
1
 40
1
 40
1
 10
673.045732
 20
426.247110
 30
0.0
 10
670.521361
 20
427.705246
 30
0.0
 10
668.967128
 20
430.399803
 30
0.0
 10
668.968919
 20
433.315040
 30
0.0
  0
SPLINE
  5
147
100
AcDbEntity
  8
holes
 62
5
100
AcDbSpline
 70
8
 71
3
 72
8
 73
4
 74
0
 40
0
 40
0
 40
0
 40
0
 40
1
 40
1
 40
1
 40
1
 10
668.968919
 20
433.315040
 30
0.0
 10
668.967128
 20
436.230277
 30
0.0
 10
670.521361
 20
438.924834
 30
0.0
 10
673.045732
 20
440.382970
 30
0.0
  0
SPLINE
  5
148
100
AcDbEntity
  8
holes
 62
5
100
AcDbSpline
 70
8
 71
3
 72
8
 73
4
 74
0
 40
0
 40
0
 40
0
 40
0
 40
1
 40
1
 40
1
 40
1
 10
673.045732
 20
440.382970
 30
0.0
 10
675.570104
 20
441.841106
 30
0.0
 10
678.680775
 20
441.841106
 30
0.0
 10
681.205147
 20
440.382970
 30
0.0
  0
SPLINE
  5
149
100
AcDbEntity
  8
holes
 62
5
100
AcDbSpline
 70
8
 71
3
 72
8
 73
4
 74
0
 40
0
 40
0
 40
0
 40
0
 40
1
 40
1
 40
1
 40
1
 10
681.205147
 20
440.382970
 30
0.0
 10
683.729519
 20
438.924834
 30
0.0
 10
685.283751
 20
436.230277
 30
0.0
 10
685.281961
 20
433.315040
 30
0.0
  0
LWPOLYLINE
  5
14a
100
AcDbEntity
  8
holes
 62
5
100
AcDbPolyline
 90
5
 70
0
 10
554.179296
 20
269.273536
 30
0.0
 10
582.579296
 20
269.273536
 30
0.0
 10
582.579296
 20
240.873536
 30
0.0
 10
554.179296
 20
240.873536
 30
0.0
 10
554.179296
 20
269.273536
 30
0.0
  0
SPLINE
  5
14b
100
AcDbEntity
  8
holes
 62
5
100
AcDbSpline
 70
8
 71
3
 72
8
 73
4
 74
0
 40
0
 40
0
 40
0
 40
0
 40
1
 40
1
 40
1
 40
1
 10
896.743777
 20
337.887797
 30
0.0
 10
896.743777
 20
336.335915
 30
0.0
 10
895.915858
 20
334.901917
 30
0.0
 10
894.571889
 20
334.125976
 30
0.0
  0
SPLINE
  5
14c
100
AcDbEntity
  8
holes
 62
5
100
AcDbSpline
 70
8
 71
3
 72
8
 73
4
 74
0
 40
0
 40
0
 40
0
 40
0
 40
1
 40
1
 40
1
 40
1
 10
894.571889
 20
334.125976
 30
0.0
 10
893.227920
 20
333.350035
 30
0.0
 10
891.572081
 20
333.350035
 30
0.0
 10
890.228112
 20
334.125976
 30
0.0
  0
SPLINE
  5
14d
100
AcDbEntity
  8
holes
 62
5
100
AcDbSpline
 70
8
 71
3
 72
8
 73
4
 74
0
 40
0
 40
0
 40
0
 40
0
 40
1
 40
1
 40
1
 40
1
 10
890.228112
 20
334.125976
 30
0.0
 10
888.884143
 20
334.901917
 30
0.0
 10
888.056224
 20
336.335915
 30
0.0
 10
888.056225
 20
337.887797
 30
0.0
  0
SPLINE
  5
14e
100
AcDbEntity
  8
holes
 62
5
100
AcDbSpline
 70
8
 71
3
 72
8
 73
4
 74
0
 40
0
 40
0
 40
0
 40
0
 40
1
 40
1
 40
1
 40
1
 10
888.056225
 20
337.887797
 30
0.0
 10
888.056225
 20
339.439679
 30
0.0
 10
888.884144
 20
340.873677
 30
0.0
 10
890.228113
 20
341.649618
 30
0.0
  0
SPLINE
  5
14f
100
AcDbEntity
  8
holes
 62
5
100
AcDbSpline
 70
8
 71
3
 72
8
 73
4
 74
0
 40
0
 40
0
 40
0
 40
0
 40
1
 40
1
 40
1
 40
1
 10
890.228113
 20
341.649618
 30
0.0
 10
891.572083
 20
342.425559
 30
0.0
 10
893.227921
 20
342.425559
 30
0.0
 10
894.571890
 20
341.649618
 30
0.0
  0
SPLINE
  5
150
100
AcDbEntity
  8
holes
 62
5
100
AcDbSpline
 70
8
 71
3
 72
8
 73
4
 74
0
 40
0
 40
0
 40
0
 40
0
 40
1
 40
1
 40
1
 40
1
 10
894.571890
 20
341.649618
 30
0.0
 10
895.915859
 20
340.873677
 30
0.0
 10
896.743778
 20
339.439679
 30
0.0
 10
896.743778
 20
337.887797
 30
0.0
  0
LWPOLYLINE
  5
151
100
AcDbEntity
  8
holes
 62
5
100
AcDbPolyline
 90
2
 70
0
 10
685.281961
 20
433.315040
 30
0.0
 10
685.281961
 20
433.315040
 30
0.0
  0
SPLINE
  5
152
100
AcDbEntity
  8
holes
 62
5
100
AcDbSpline
 70
8
 71
3
 72
8
 73
4
 74
0
 40
0
 40
0
 40
0
 40
0
 40
1
 40
1
 40
1
 40
1
 10
932.743777
 20
301.887805
 30
0.0
 10
932.743777
 20
300.335923
 30
0.0
 10
931.915858
 20
298.901925
 30
0.0
 10
930.571889
 20
298.125984
 30
0.0
  0
SPLINE
  5
153
100
AcDbEntity
  8
holes
 62
5
100
AcDbSpline
 70
8
 71
3
 72
8
 73
4
 74
0
 40
0
 40
0
 40
0
 40
0
 40
1
 40
1
 40
1
 40
1
 10
930.571889
 20
298.125984
 30
0.0
 10
929.227920
 20
297.350043
 30
0.0
 10
927.572081
 20
297.350043
 30
0.0
 10
926.228112
 20
298.125984
 30
0.0
  0
SPLINE
  5
154
100
AcDbEntity
  8
holes
 62
5
100
AcDbSpline
 70
8
 71
3
 72
8
 73
4
 74
0
 40
0
 40
0
 40
0
 40
0
 40
1
 40
1
 40
1
 40
1
 10
926.228112
 20
298.125984
 30
0.0
 10
924.884143
 20
298.901925
 30
0.0
 10
924.056224
 20
300.335923
 30
0.0
 10
924.056225
 20
301.887805
 30
0.0
  0
SPLINE
  5
155
100
AcDbEntity
  8
holes
 62
5
100
AcDbSpline
 70
8
 71
3
 72
8
 73
4
 74
0
 40
0
 40
0
 40
0
 40
0
 40
1
 40
1
 40
1
 40
1
 10
924.056225
 20
301.887805
 30
0.0
 10
924.056225
 20
303.439687
 30
0.0
 10
924.884144
 20
304.873685
 30
0.0
 10
926.228113
 20
305.649626
 30
0.0
  0
SPLINE
  5
156
100
AcDbEntity
  8
holes
 62
5
100
AcDbSpline
 70
8
 71
3
 72
8
 73
4
 74
0
 40
0
 40
0
 40
0
 40
0
 40
1
 40
1
 40
1
 40
1
 10
926.228113
 20
305.649626
 30
0.0
 10
927.572083
 20
306.425567
 30
0.0
 10
929.227921
 20
306.425567
 30
0.0
 10
930.571890
 20
305.649626
 30
0.0
  0
SPLINE
  5
157
100
AcDbEntity
  8
holes
 62
5
100
AcDbSpline
 70
8
 71
3
 72
8
 73
4
 74
0
 40
0
 40
0
 40
0
 40
0
 40
1
 40
1
 40
1
 40
1
 10
930.571890
 20
305.649626
 30
0.0
 10
931.915859
 20
304.873685
 30
0.0
 10
932.743778
 20
303.439687
 30
0.0
 10
932.743778
 20
301.887805
 30
0.0
  0
LWPOLYLINE
  5
158
100
AcDbEntity
  8
holes
 62
5
100
AcDbPolyline
 90
2
 70
0
 10
896.743778
 20
337.887797
 30
0.0
 10
896.743779
 20
337.887797
 30
0.0
  0
SPLINE
  5
159
100
AcDbEntity
  8
holes
 62
5
100
AcDbSpline
 70
8
 71
3
 72
8
 73
4
 74
0
 40
0
 40
0
 40
0
 40
0
 40
1
 40
1
 40
1
 40
1
 10
918.250707
 20
319.887823
 30
0.0
 10
918.250707
 20
317.083028
 30
0.0
 10
916.754367
 20
314.491290
 30
0.0
 10
914.325343
 20
313.088892
 30
0.0
  0
SPLINE
  5
15a
100
AcDbEntity
  8
holes
 62
5
100
AcDbSpline
 70
8
 71
3
 72
8
 73
4
 74
0
 40
0
 40
0
 40
0
 40
0
 40
1
 40
1
 40
1
 40
1
 10
914.325343
 20
313.088892
 30
0.0
 10
911.896319
 20
311.686495
 30
0.0
 10
908.903638
 20
311.686495
 30
0.0
 10
906.474614
 20
313.088892
 30
0.0
  0
SPLINE
  5
15b
100
AcDbEntity
  8
holes
 62
5
100
AcDbSpline
 70
8
 71
3
 72
8
 73
4
 74
0
 40
0
 40
0
 40
0
 40
0
 40
1
 40
1
 40
1
 40
1
 10
906.474614
 20
313.088892
 30
0.0
 10
904.045590
 20
314.491290
 30
0.0
 10
902.549250
 20
317.083028
 30
0.0
 10
902.549252
 20
319.887823
 30
0.0
  0
SPLINE
  5
15c
100
AcDbEntity
  8
holes
 62
5
100
AcDbSpline
 70
8
 71
3
 72
8
 73
4
 74
0
 40
0
 40
0
 40
0
 40
0
 40
1
 40
1
 40
1
 40
1
 10
902.549252
 20
319.887823
 30
0.0
 10
902.549252
 20
322.692618
 30
0.0
 10
904.045593
 20
325.284356
 30
0.0
 10
906.474616
 20
326.686753
 30
0.0
  0
SPLINE
  5
15d
100
AcDbEntity
  8
holes
 62
5
100
AcDbSpline
 70
8
 71
3
 72
8
 73
4
 74
0
 40
0
 40
0
 40
0
 40
0
 40
1
 40
1
 40
1
 40
1
 10
906.474616
 20
326.686753
 30
0.0
 10
908.903640
 20
328.089151
 30
0.0
 10
911.896321
 20
328.089151
 30
0.0
 10
914.325345
 20
326.686753
 30
0.0
  0
SPLINE
  5
15e
100
AcDbEntity
  8
holes
 62
5
100
AcDbSpline
 70
8
 71
3
 72
8
 73
4
 74
0
 40
0
 40
0
 40
0
 40
0
 40
1
 40
1
 40
1
 40
1
 10
914.325345
 20
326.686753
 30
0.0
 10
916.754369
 20
325.284356
 30
0.0
 10
918.250709
 20
322.692618
 30
0.0
 10
918.250709
 20
319.887823
 30
0.0
  0
LWPOLYLINE
  5
15f
100
AcDbEntity
  8
holes
 62
5
100
AcDbPolyline
 90
2
 70
0
 10
932.743778
 20
301.887805
 30
0.0
 10
932.743779
 20
301.887805
 30
0.0
  0
SPLINE
  5
160
100
AcDbEntity
  8
holes
 62
5
100
AcDbSpline
 70
8
 71
3
 72
8
 73
4
 74
0
 40
0
 40
0
 40
0
 40
0
 40
1
 40
1
 40
1
 40
1
 10
212.743779
 20
337.887797
 30
0.0
 10
212.743779
 20
335.488798
 30
0.0
 10
210.799002
 20
333.544022
 30
0.0
 10
208.400003
 20
333.544022
 30
0.0
  0
SPLINE
  5
161
100
AcDbEntity
  8
holes
 62
5
100
AcDbSpline
 70
8
 71
3
 72
8
 73
4
 74
0
 40
0
 40
0
 40
0
 40
0
 40
1
 40
1
 40
1
 40
1
 10
208.400003
 20
333.544022
 30
0.0
 10
206.000997
 20
333.544022
 30
0.0
 10
204.056221
 20
335.488798
 30
0.0
 10
204.056221
 20
337.887797
 30
0.0
  0
SPLINE
  5
162
100
AcDbEntity
  8
holes
 62
5
100
AcDbSpline
 70
8
 71
3
 72
8
 73
4
 74
0
 40
0
 40
0
 40
0
 40
0
 40
1
 40
1
 40
1
 40
1
 10
204.056221
 20
337.887797
 30
0.0
 10
204.056221
 20
340.286796
 30
0.0
 10
206.000997
 20
342.231572
 30
0.0
 10
208.400003
 20
342.231572
 30
0.0
  0
SPLINE
  5
163
100
AcDbEntity
  8
holes
 62
5
100
AcDbSpline
 70
8
 71
3
 72
8
 73
4
 74
0
 40
0
 40
0
 40
0
 40
0
 40
1
 40
1
 40
1
 40
1
 10
208.400003
 20
342.231572
 30
0.0
 10
210.799002
 20
342.231572
 30
0.0
 10
212.743779
 20
340.286796
 30
0.0
 10
212.743779
 20
337.887797
 30
0.0
  0
LWPOLYLINE
  5
164
100
AcDbEntity
  8
holes
 62
5
100
AcDbPolyline
 90
2
 70
0
 10
918.250709
 20
319.887823
 30
0.0
 10
918.250712
 20
319.887823
 30
0.0
  0
SPLINE
  5
165
100
AcDbEntity
  8
holes
 62
5
100
AcDbSpline
 70
8
 71
3
 72
8
 73
4
 74
0
 40
0
 40
0
 40
0
 40
0
 40
1
 40
1
 40
1
 40
1
 10
248.743779
 20
301.887805
 30
0.0
 10
248.743779
 20
299.488806
 30
0.0
 10
246.799002
 20
297.544030
 30
0.0
 10
244.400003
 20
297.544030
 30
0.0
  0
SPLINE
  5
166
100
AcDbEntity
  8
holes
 62
5
100
AcDbSpline
 70
8
 71
3
 72
8
 73
4
 74
0
 40
0
 40
0
 40
0
 40
0
 40
1
 40
1
 40
1
 40
1
 10
244.400003
 20
297.544030
 30
0.0
 10
242.000997
 20
297.544030
 30
0.0
 10
240.056221
 20
299.488806
 30
0.0
 10
240.056221
 20
301.887805
 30
0.0
  0
SPLINE
  5
167
100
AcDbEntity
  8
holes
 62
5
100
AcDbSpline
 70
8
 71
3
 72
8
 73
4
 74
0
 40
0
 40
0
 40
0
 40
0
 40
1
 40
1
 40
1
 40
1
 10
240.056221
 20
301.887805
 30
0.0
 10
240.056221
 20
304.286804
 30
0.0
 10
242.000997
 20
306.231580
 30
0.0
 10
244.400003
 20
306.231580
 30
0.0
  0
SPLINE
  5
168
100
AcDbEntity
  8
holes
 62
5
100
AcDbSpline
 70
8
 71
3
 72
8
 73
4
 74
0
 40
0
 40
0
 40
0
 40
0
 40
1
 40
1
 40
1
 40
1
 10
244.400003
 20
306.231580
 30
0.0
 10
246.799002
 20
306.231580
 30
0.0
 10
248.743779
 20
304.286804
 30
0.0
 10
248.743779
 20
301.887805
 30
0.0
  0
LWPOLYLINE
  5
169
100
AcDbEntity
  8
holes
 62
5
100
AcDbPolyline
 90
2
 70
0
 10
212.743779
 20
337.887797
 30
0.0
 10
212.743779
 20
337.887797
 30
0.0
  0
SPLINE
  5
16a
100
AcDbEntity
  8
holes
 62
5
100
AcDbSpline
 70
8
 71
3
 72
8
 73
4
 74
0
 40
0
 40
0
 40
0
 40
0
 40
1
 40
1
 40
1
 40
1
 10
230.325340
 20
319.887826
 30
0.0
 10
230.325340
 20
317.719909
 30
0.0
 10
228.567894
 20
315.962462
 30
0.0
 10
226.399977
 20
315.962462
 30
0.0
  0
SPLINE
  5
16b
100
AcDbEntity
  8
holes
 62
5
100
AcDbSpline
 70
8
 71
3
 72
8
 73
4
 74
0
 40
0
 40
0
 40
0
 40
0
 40
1
 40
1
 40
1
 40
1
 10
226.399977
 20
315.962462
 30
0.0
 10
224.232054
 20
315.962462
 30
0.0
 10
222.474607
 20
317.719909
 30
0.0
 10
222.474607
 20
319.887826
 30
0.0
  0
SPLINE
  5
16c
100
AcDbEntity
  8
holes
 62
5
100
AcDbSpline
 70
8
 71
3
 72
8
 73
4
 74
0
 40
0
 40
0
 40
0
 40
0
 40
1
 40
1
 40
1
 40
1
 10
222.474607
 20
319.887826
 30
0.0
 10
222.474607
 20
322.055742
 30
0.0
 10
224.232054
 20
323.813189
 30
0.0
 10
226.399977
 20
323.813189
 30
0.0
  0
SPLINE
  5
16d
100
AcDbEntity
  8
holes
 62
5
100
AcDbSpline
 70
8
 71
3
 72
8
 73
4
 74
0
 40
0
 40
0
 40
0
 40
0
 40
1
 40
1
 40
1
 40
1
 10
226.399977
 20
323.813189
 30
0.0
 10
228.567894
 20
323.813189
 30
0.0
 10
230.325340
 20
322.055742
 30
0.0
 10
230.325340
 20
319.887826
 30
0.0
  0
LWPOLYLINE
  5
16e
100
AcDbEntity
  8
holes
 62
5
100
AcDbPolyline
 90
2
 70
0
 10
248.743779
 20
301.887805
 30
0.0
 10
248.743779
 20
301.887805
 30
0.0
  0
SPLINE
  5
16f
100
AcDbEntity
  8
holes
 62
5
100
AcDbSpline
 70
8
 71
3
 72
8
 73
4
 74
0
 40
0
 40
0
 40
0
 40
0
 40
1
 40
1
 40
1
 40
1
 10
211.886633
 20
680.230653
 30
0.0
 10
211.886633
 20
678.678771
 30
0.0
 10
211.058714
 20
677.244773
 30
0.0
 10
209.714745
 20
676.468832
 30
0.0
  0
SPLINE
  5
170
100
AcDbEntity
  8
holes
 62
5
100
AcDbSpline
 70
8
 71
3
 72
8
 73
4
 74
0
 40
0
 40
0
 40
0
 40
0
 40
1
 40
1
 40
1
 40
1
 10
209.714745
 20
676.468832
 30
0.0
 10
208.370776
 20
675.692891
 30
0.0
 10
206.714937
 20
675.692891
 30
0.0
 10
205.370968
 20
676.468832
 30
0.0
  0
SPLINE
  5
171
100
AcDbEntity
  8
holes
 62
5
100
AcDbSpline
 70
8
 71
3
 72
8
 73
4
 74
0
 40
0
 40
0
 40
0
 40
0
 40
1
 40
1
 40
1
 40
1
 10
205.370968
 20
676.468832
 30
0.0
 10
204.026999
 20
677.244773
 30
0.0
 10
203.199080
 20
678.678771
 30
0.0
 10
203.199081
 20
680.230653
 30
0.0
  0
SPLINE
  5
172
100
AcDbEntity
  8
holes
 62
5
100
AcDbSpline
 70
8
 71
3
 72
8
 73
4
 74
0
 40
0
 40
0
 40
0
 40
0
 40
1
 40
1
 40
1
 40
1
 10
203.199081
 20
680.230653
 30
0.0
 10
203.199081
 20
681.782535
 30
0.0
 10
204.027000
 20
683.216533
 30
0.0
 10
205.370969
 20
683.992474
 30
0.0
  0
SPLINE
  5
173
100
AcDbEntity
  8
holes
 62
5
100
AcDbSpline
 70
8
 71
3
 72
8
 73
4
 74
0
 40
0
 40
0
 40
0
 40
0
 40
1
 40
1
 40
1
 40
1
 10
205.370969
 20
683.992474
 30
0.0
 10
206.714939
 20
684.768415
 30
0.0
 10
208.370777
 20
684.768415
 30
0.0
 10
209.714746
 20
683.992474
 30
0.0
  0
SPLINE
  5
174
100
AcDbEntity
  8
holes
 62
5
100
AcDbSpline
 70
8
 71
3
 72
8
 73
4
 74
0
 40
0
 40
0
 40
0
 40
0
 40
1
 40
1
 40
1
 40
1
 10
209.714746
 20
683.992474
 30
0.0
 10
211.058715
 20
683.216533
 30
0.0
 10
211.886634
 20
681.782535
 30
0.0
 10
211.886634
 20
680.230653
 30
0.0
  0
LWPOLYLINE
  5
175
100
AcDbEntity
  8
holes
 62
5
100
AcDbPolyline
 90
2
 70
0
 10
230.325340
 20
319.887826
 30
0.0
 10
230.325340
 20
319.887826
 30
0.0
  0
SPLINE
  5
176
100
AcDbEntity
  8
holes
 62
5
100
AcDbSpline
 70
8
 71
3
 72
8
 73
4
 74
0
 40
0
 40
0
 40
0
 40
0
 40
1
 40
1
 40
1
 40
1
 10
247.886633
 20
644.230661
 30
0.0
 10
247.886633
 20
642.678779
 30
0.0
 10
247.058714
 20
641.244781
 30
0.0
 10
245.714745
 20
640.468840
 30
0.0
  0
SPLINE
  5
177
100
AcDbEntity
  8
holes
 62
5
100
AcDbSpline
 70
8
 71
3
 72
8
 73
4
 74
0
 40
0
 40
0
 40
0
 40
0
 40
1
 40
1
 40
1
 40
1
 10
245.714745
 20
640.468840
 30
0.0
 10
244.370776
 20
639.692899
 30
0.0
 10
242.714937
 20
639.692899
 30
0.0
 10
241.370968
 20
640.468840
 30
0.0
  0
SPLINE
  5
178
100
AcDbEntity
  8
holes
 62
5
100
AcDbSpline
 70
8
 71
3
 72
8
 73
4
 74
0
 40
0
 40
0
 40
0
 40
0
 40
1
 40
1
 40
1
 40
1
 10
241.370968
 20
640.468840
 30
0.0
 10
240.026999
 20
641.244781
 30
0.0
 10
239.199080
 20
642.678779
 30
0.0
 10
239.199081
 20
644.230661
 30
0.0
  0
SPLINE
  5
179
100
AcDbEntity
  8
holes
 62
5
100
AcDbSpline
 70
8
 71
3
 72
8
 73
4
 74
0
 40
0
 40
0
 40
0
 40
0
 40
1
 40
1
 40
1
 40
1
 10
239.199081
 20
644.230661
 30
0.0
 10
239.199081
 20
645.782543
 30
0.0
 10
240.027000
 20
647.216541
 30
0.0
 10
241.370969
 20
647.992482
 30
0.0
  0
SPLINE
  5
17a
100
AcDbEntity
  8
holes
 62
5
100
AcDbSpline
 70
8
 71
3
 72
8
 73
4
 74
0
 40
0
 40
0
 40
0
 40
0
 40
1
 40
1
 40
1
 40
1
 10
241.370969
 20
647.992482
 30
0.0
 10
242.714939
 20
648.768423
 30
0.0
 10
244.370777
 20
648.768423
 30
0.0
 10
245.714746
 20
647.992482
 30
0.0
  0
SPLINE
  5
17b
100
AcDbEntity
  8
holes
 62
5
100
AcDbSpline
 70
8
 71
3
 72
8
 73
4
 74
0
 40
0
 40
0
 40
0
 40
0
 40
1
 40
1
 40
1
 40
1
 10
245.714746
 20
647.992482
 30
0.0
 10
247.058715
 20
647.216541
 30
0.0
 10
247.886634
 20
645.782543
 30
0.0
 10
247.886634
 20
644.230661
 30
0.0
  0
LWPOLYLINE
  5
17c
100
AcDbEntity
  8
holes
 62
5
100
AcDbPolyline
 90
2
 70
0
 10
211.886634
 20
680.230653
 30
0.0
 10
211.886635
 20
680.230653
 30
0.0
  0
SPLINE
  5
17d
100
AcDbEntity
  8
engravings
 62
1
100
AcDbSpline
 70
8
 71
3
 72
8
 73
4
 74
0
 40
0
 40
0
 40
0
 40
0
 40
1
 40
1
 40
1
 40
1
 10
303.137811
 20
323.000004
 30
0.0
 10
303.137811
 20
318.592129
 30
0.0
 10
300.786238
 20
314.519084
 30
0.0
 10
296.968906
 20
312.315146
 30
0.0
  0
SPLINE
  5
17e
100
AcDbEntity
  8
engravings
 62
1
100
AcDbSpline
 70
8
 71
3
 72
8
 73
4
 74
0
 40
0
 40
0
 40
0
 40
0
 40
1
 40
1
 40
1
 40
1
 10
296.968906
 20
312.315146
 30
0.0
 10
293.151574
 20
310.111209
 30
0.0
 10
288.448427
 20
310.111209
 30
0.0
 10
284.631095
 20
312.315146
 30
0.0
  0
SPLINE
  5
17f
100
AcDbEntity
  8
engravings
 62
1
100
AcDbSpline
 70
8
 71
3
 72
8
 73
4
 74
0
 40
0
 40
0
 40
0
 40
0
 40
1
 40
1
 40
1
 40
1
 10
284.631095
 20
312.315146
 30
0.0
 10
280.813763
 20
314.519084
 30
0.0
 10
278.462190
 20
318.592129
 30
0.0
 10
278.462190
 20
323.000004
 30
0.0
  0
SPLINE
  5
180
100
AcDbEntity
  8
engravings
 62
1
100
AcDbSpline
 70
8
 71
3
 72
8
 73
4
 74
0
 40
0
 40
0
 40
0
 40
0
 40
1
 40
1
 40
1
 40
1
 10
278.462190
 20
323.000004
 30
0.0
 10
278.462190
 20
327.407879
 30
0.0
 10
280.813763
 20
331.480924
 30
0.0
 10
284.631095
 20
333.684861
 30
0.0
  0
SPLINE
  5
181
100
AcDbEntity
  8
engravings
 62
1
100
AcDbSpline
 70
8
 71
3
 72
8
 73
4
 74
0
 40
0
 40
0
 40
0
 40
0
 40
1
 40
1
 40
1
 40
1
 10
284.631095
 20
333.684861
 30
0.0
 10
288.448427
 20
335.888799
 30
0.0
 10
293.151574
 20
335.888799
 30
0.0
 10
296.968906
 20
333.684861
 30
0.0
  0
SPLINE
  5
182
100
AcDbEntity
  8
engravings
 62
1
100
AcDbSpline
 70
8
 71
3
 72
8
 73
4
 74
0
 40
0
 40
0
 40
0
 40
0
 40
1
 40
1
 40
1
 40
1
 10
296.968906
 20
333.684861
 30
0.0
 10
300.786238
 20
331.480924
 30
0.0
 10
303.137811
 20
327.407879
 30
0.0
 10
303.137811
 20
323.000004
 30
0.0
  0
LWPOLYLINE
  5
183
100
AcDbEntity
  8
holes
 62
5
100
AcDbPolyline
 90
2
 70
0
 10
247.886634
 20
644.230661
 30
0.0
 10
247.886635
 20
644.230661
 30
0.0
  0
SPLINE
  5
184
100
AcDbEntity
  8
engravings
 62
1
100
AcDbSpline
 70
8
 71
3
 72
8
 73
4
 74
0
 40
0
 40
0
 40
0
 40
0
 40
1
 40
1
 40
1
 40
1
 10
313.213688
 20
324.028152
 30
0.0
 10
307.279488
 20
321.690352
 30
0.0
 10
299.227864
 20
319.951408
 30
0.0
 10
310.724904
 20
312.683560
 30
0.0
  0
SPLINE
  5
185
100
AcDbEntity
  8
engravings
 62
1
100
AcDbSpline
 70
8
 71
3
 72
8
 73
4
 74
0
 40
0
 40
0
 40
0
 40
0
 40
1
 40
1
 40
1
 40
1
 10
310.724904
 20
312.683560
 30
0.0
 10
302.474232
 20
314.614824
 30
0.0
 10
297.868832
 20
313.450112
 30
0.0
 10
302.897248
 20
304.103248
 30
0.0
  0
SPLINE
  5
186
100
AcDbEntity
  8
engravings
 62
1
100
AcDbSpline
 70
8
 71
3
 72
8
 73
4
 74
0
 40
0
 40
0
 40
0
 40
0
 40
1
 40
1
 40
1
 40
1
 10
302.897248
 20
304.103248
 30
0.0
 10
296.973008
 20
308.932288
 30
0.0
 10
291.469936
 20
312.630176
 30
0.0
 10
291.828152
 20
300.586312
 30
0.0
  0
SPLINE
  5
187
100
AcDbEntity
  8
engravings
 62
1
100
AcDbSpline
 70
8
 71
3
 72
8
 73
4
 74
0
 40
0
 40
0
 40
0
 40
0
 40
1
 40
1
 40
1
 40
1
 10
291.828152
 20
300.586312
 30
0.0
 10
289.998576
 20
307.944864
 30
0.0
 10
287.540672
 20
313.201760
 30
0.0
 10
280.483560
 20
303.075096
 30
0.0
  0
SPLINE
  5
188
100
AcDbEntity
  8
engravings
 62
1
100
AcDbSpline
 70
8
 71
3
 72
8
 73
4
 74
0
 40
0
 40
0
 40
0
 40
0
 40
1
 40
1
 40
1
 40
1
 10
280.483560
 20
303.075096
 30
0.0
 10
283.248976
 20
311.386896
 30
0.0
 10
282.414944
 20
316.049944
 30
0.0
 10
271.903248
 20
310.902752
 30
0.0
  0
SPLINE
  5
189
100
AcDbEntity
  8
engravings
 62
1
100
AcDbSpline
 70
8
 71
3
 72
8
 73
4
 74
0
 40
0
 40
0
 40
0
 40
0
 40
1
 40
1
 40
1
 40
1
 10
271.903248
 20
310.902752
 30
0.0
 10
278.151824
 20
317.621384
 30
0.0
 10
279.944632
 20
322.521336
 30
0.0
 10
268.386312
 20
321.971848
 30
0.0
  0
SPLINE
  5
18a
100
AcDbEntity
  8
engravings
 62
1
100
AcDbSpline
 70
8
 71
3
 72
8
 73
4
 74
0
 40
0
 40
0
 40
0
 40
0
 40
1
 40
1
 40
1
 40
1
 10
268.386312
 20
321.971848
 30
0.0
 10
273.598560
 20
323.964544
 30
0.0
 10
282.687976
 20
324.374720
 30
0.0
 10
270.875096
 20
333.316440
 30
0.0
  0
SPLINE
  5
18b
100
AcDbEntity
  8
engravings
 62
1
100
AcDbSpline
 70
8
 71
3
 72
8
 73
4
 74
0
 40
0
 40
0
 40
0
 40
0
 40
1
 40
1
 40
1
 40
1
 10
270.875096
 20
333.316440
 30
0.0
 10
278.873168
 20
331.006152
 30
0.0
 10
284.118776
 20
331.336744
 30
0.0
 10
278.702752
 20
341.896752
 30
0.0
  0
SPLINE
  5
18c
100
AcDbEntity
  8
engravings
 62
1
100
AcDbSpline
 70
8
 71
3
 72
8
 73
4
 74
0
 40
0
 40
0
 40
0
 40
0
 40
1
 40
1
 40
1
 40
1
 10
278.702752
 20
341.896752
 30
0.0
 10
284.541040
 20
336.480056
 30
0.0
 10
289.365728
 20
334.171744
 30
0.0
 10
289.771848
 20
345.413688
 30
0.0
  0
SPLINE
  5
18d
100
AcDbEntity
  8
engravings
 62
1
100
AcDbSpline
 70
8
 71
3
 72
8
 73
4
 74
0
 40
0
 40
0
 40
0
 40
0
 40
1
 40
1
 40
1
 40
1
 10
289.771848
 20
345.413688
 30
0.0
 10
291.695312
 20
333.745352
 30
0.0
 10
295.915360
 20
335.473800
 30
0.0
 10
301.116440
 20
342.924904
 30
0.0
  0
SPLINE
  5
18e
100
AcDbEntity
  8
engravings
 62
1
100
AcDbSpline
 70
8
 71
3
 72
8
 73
4
 74
0
 40
0
 40
0
 40
0
 40
0
 40
1
 40
1
 40
1
 40
1
 10
301.116440
 20
342.924904
 30
0.0
 10
297.403360
 20
330.573288
 30
0.0
 10
303.388712
 20
332.596136
 30
0.0
 10
309.696752
 20
335.097248
 30
0.0
  0
SPLINE
  5
18f
100
AcDbEntity
  8
engravings
 62
1
100
AcDbSpline
 70
8
 71
3
 72
8
 73
4
 74
0
 40
0
 40
0
 40
0
 40
0
 40
1
 40
1
 40
1
 40
1
 10
309.696752
 20
335.097248
 30
0.0
 10
300.239968
 20
326.301416
 30
0.0
 10
304.110232
 20
323.907792
 30
0.0
 10
313.213688
 20
324.028152
 30
0.0
  0
LWPOLYLINE
  5
190
100
AcDbEntity
  8
engravings
 62
1
100
AcDbPolyline
 90
2
 70
0
 10
303.137811
 20
323.000004
 30
0.0
 10
303.137811
 20
323.000004
 30
0.0
  0
SPLINE
  5
191
100
AcDbEntity
  8
engravings
 62
1
100
AcDbSpline
 70
8
 71
3
 72
8
 73
4
 74
0
 40
0
 40
0
 40
0
 40
0
 40
1
 40
1
 40
1
 40
1
 10
986.082960
 20
314.563840
 30
0.0
 10
986.082960
 20
314.563840
 30
0.0
 10
977.482960
 20
305.763840
 30
0.0
 10
967.682960
 20
309.963840
 30
0.0
  0
SPLINE
  5
192
100
AcDbEntity
  8
engravings
 62
1
100
AcDbSpline
 70
8
 71
3
 72
8
 73
4
 74
0
 40
0
 40
0
 40
0
 40
0
 40
1
 40
1
 40
1
 40
1
 10
967.682960
 20
309.963840
 30
0.0
 10
957.882960
 20
314.163840
 30
0.0
 10
952.282960
 20
322.163840
 30
0.0
 10
949.082960
 20
320.363840
 30
0.0
  0
SPLINE
  5
193
100
AcDbEntity
  8
engravings
 62
1
100
AcDbSpline
 70
8
 71
3
 72
8
 73
4
 74
0
 40
0
 40
0
 40
0
 40
0
 40
1
 40
1
 40
1
 40
1
 10
949.082960
 20
320.363840
 30
0.0
 10
945.882960
 20
318.563840
 30
0.0
 10
960.682960
 20
331.563840
 30
0.0
 10
967.682960
 20
330.563840
 30
0.0
  0
SPLINE
  5
194
100
AcDbEntity
  8
engravings
 62
1
100
AcDbSpline
 70
8
 71
3
 72
8
 73
4
 74
0
 40
0
 40
0
 40
0
 40
0
 40
1
 40
1
 40
1
 40
1
 10
967.682960
 20
330.563840
 30
0.0
 10
974.682960
 20
329.563840
 30
0.0
 10
985.682960
 20
324.363840
 30
0.0
 10
985.682960
 20
324.363840
 30
0.0
  0
LWPOLYLINE
  5
195
100
AcDbEntity
  8
engravings
 62
1
100
AcDbPolyline
 90
2
 70
0
 10
313.213688
 20
324.028152
 30
0.0
 10
313.213688
 20
324.028152
 30
0.0
  0
SPLINE
  5
196
100
AcDbEntity
  8
engravings
 62
1
100
AcDbSpline
 70
8
 71
3
 72
8
 73
4
 74
0
 40
0
 40
0
 40
0
 40
0
 40
1
 40
1
 40
1
 40
1
 10
985.851584
 20
316.935920
 30
0.0
 10
985.851584
 20
316.935920
 30
0.0
 10
980.113768
 20
312.522720
 30
0.0
 10
973.575336
 20
314.629040
 30
0.0
  0
SPLINE
  5
197
100
AcDbEntity
  8
engravings
 62
1
100
AcDbSpline
 70
8
 71
3
 72
8
 73
4
 74
0
 40
0
 40
0
 40
0
 40
0
 40
1
 40
1
 40
1
 40
1
 10
973.575336
 20
314.629040
 30
0.0
 10
967.036896
 20
316.735280
 30
0.0
 10
963.300640
 20
320.747280
 30
0.0
 10
961.165640
 20
319.844560
 30
0.0
  0
SPLINE
  5
198
100
AcDbEntity
  8
engravings
 62
1
100
AcDbSpline
 70
8
 71
3
 72
8
 73
4
 74
0
 40
0
 40
0
 40
0
 40
0
 40
1
 40
1
 40
1
 40
1
 10
961.165640
 20
319.844560
 30
0.0
 10
959.030640
 20
318.941920
 30
0.0
 10
968.905016
 20
325.461360
 30
0.0
 10
973.575336
 20
324.959840
 30
0.0
  0
SPLINE
  5
199
100
AcDbEntity
  8
engravings
 62
1
100
AcDbSpline
 70
8
 71
3
 72
8
 73
4
 74
0
 40
0
 40
0
 40
0
 40
0
 40
1
 40
1
 40
1
 40
1
 10
973.575336
 20
324.959840
 30
0.0
 10
978.245648
 20
324.458400
 30
0.0
 10
985.584712
 20
321.850560
 30
0.0
 10
985.584712
 20
321.850560
 30
0.0
  0
LWPOLYLINE
  5
19a
100
AcDbEntity
  8
engravings
 62
1
100
AcDbPolyline
 90
2
 70
0
 10
985.682960
 20
324.363840
 30
0.0
 10
986.082960
 20
314.563840
 30
0.0
  0
LWPOLYLINE
  5
19b
100
AcDbEntity
  8
engravings
 62
1
100
AcDbPolyline
 90
2
 70
0
 10
985.584712
 20
321.850560
 30
0.0
 10
985.851584
 20
316.935920
 30
0.0
  0
LWPOLYLINE
  5
19c
100
AcDbEntity
  8
engravings
 62
1
100
AcDbPolyline
 90
2
 70
0
 10
910.000000
 20
632.600000
 30
0.0
 10
910.000000
 20
566.600000
 30
0.0
  0
LWPOLYLINE
  5
19d
100
AcDbEntity
  8
engravings
 62
1
100
AcDbPolyline
 90
4
 70
0
 10
893.000000
 20
566.400000
 30
0.0
 10
927.000000
 20
566.900000
 30
0.0
 10
910.500000
 20
550.100000
 30
0.0
 10
893.000000
 20
566.400000
 30
0.0
  0
LWPOLYLINE
  5
19e
100
AcDbEntity
  8
engravings
 62
1
100
AcDbPolyline
 90
2
 70
0
 10
911.131360
 20
673.419104
 30
0.0
 10
911.131360
 20
739.419104
 30
0.0
  0
LWPOLYLINE
  5
19f
100
AcDbEntity
  8
engravings
 62
1
100
AcDbPolyline
 90
4
 70
0
 10
928.131360
 20
739.619104
 30
0.0
 10
894.131360
 20
739.119104
 30
0.0
 10
910.631360
 20
755.919104
 30
0.0
 10
928.131360
 20
739.619104
 30
0.0
  0
LWPOLYLINE
  5
1a0
100
AcDbEntity
  8
engravings
 62
1
100
AcDbPolyline
 90
2
 70
0
 10
889.024731
 20
656.969362
 30
0.0
 10
823.024731
 20
656.969362
 30
0.0
  0
LWPOLYLINE
  5
1a1
100
AcDbEntity
  8
engravings
 62
1
100
AcDbPolyline
 90
4
 70
0
 10
822.824731
 20
673.969362
 30
0.0
 10
823.324731
 20
639.969362
 30
0.0
 10
806.524731
 20
656.469362
 30
0.0
 10
822.824731
 20
673.969362
 30
0.0
  0
LWPOLYLINE
  5
1a2
100
AcDbEntity
  8
engravings
 62
1
100
AcDbPolyline
 90
2
 70
0
 10
929.843832
 20
655.837976
 30
0.0
 10
995.843832
 20
655.837976
 30
0.0
  0
LWPOLYLINE
  5
1a3
100
AcDbEntity
  8
engravings
 62
1
100
AcDbPolyline
 90
4
 70
0
 10
996.043832
 20
638.837976
 30
0.0
 10
995.543832
 20
672.837976
 30
0.0
 10
1012.343832
 20
656.337976
 30
0.0
 10
996.043832
 20
638.837976
 30
0.0
  0
LWPOLYLINE
  5
1a4
100
AcDbEntity
  8
engravings
 62
1
100
AcDbPolyline
 90
3
 70
0
 10
477.200000
 20
239.600000
 30
0.0
 10
488.400000
 20
241.600000
 30
0.0
 10
482.800000
 20
231.600000
 30
0.0
  0
SPLINE
  5
1a5
100
AcDbEntity
  8
engravings
 62
1
100
AcDbSpline
 70
8
 71
3
 72
8
 73
4
 74
0
 40
0
 40
0
 40
0
 40
0
 40
1
 40
1
 40
1
 40
1
 10
568.893153
 20
667.571364
 30
0.0
 10
571.370655
 20
678.003788
 30
0.0
 10
580.514496
 20
685.745910
 30
0.0
 10
591.415532
 20
685.745910
 30
0.0
  0
SPLINE
  5
1a6
100
AcDbEntity
  8
engravings
 62
1
100
AcDbSpline
 70
8
 71
3
 72
8
 73
4
 74
0
 40
0
 40
0
 40
0
 40
0
 40
1
 40
1
 40
1
 40
1
 10
591.415532
 20
685.745910
 30
0.0
 10
604.219865
 20
685.745910
 30
0.0
 10
614.599827
 20
675.064269
 30
0.0
 10
614.599827
 20
661.887798
 30
0.0
  0
LWPOLYLINE
  5
1a7
100
AcDbEntity
  8
engravings
 62
1
100
AcDbPolyline
 90
3
 70
0
 10
191.600000
 20
675.600000
 30
0.0
 10
202.800000
 20
677.600000
 30
0.0
 10
197.200000
 20
667.600000
 30
0.0
  0
SPLINE
  5
1a8
100
AcDbEntity
  8
engravings
 62
1
100
AcDbSpline
 70
8
 71
3
 72
8
 73
4
 74
0
 40
0
 40
0
 40
0
 40
0
 40
1
 40
1
 40
1
 40
1
 10
614.599827
 20
661.887798
 30
0.0
 10
614.599827
 20
648.711326
 30
0.0
 10
604.219865
 20
638.029694
 30
0.0
 10
591.415532
 20
638.029694
 30
0.0
  0
SPLINE
  5
1a9
100
AcDbEntity
  8
engravings
 62
1
100
AcDbSpline
 70
8
 71
3
 72
8
 73
4
 74
0
 40
0
 40
0
 40
0
 40
0
 40
1
 40
1
 40
1
 40
1
 10
591.415532
 20
638.029694
 30
0.0
 10
580.804435
 20
638.029694
 30
0.0
 10
571.858301
 20
645.365445
 30
0.0
 10
569.104892
 20
655.377613
 30
0.0
  0
SPLINE
  5
1aa
100
AcDbEntity
  8
engravings
 62
1
100
AcDbSpline
 70
8
 71
3
 72
8
 73
4
 74
0
 40
0
 40
0
 40
0
 40
0
 40
1
 40
1
 40
1
 40
1
 10
569.020416
 20
667.558609
 30
0.0
 10
571.299162
 20
674.284167
 30
0.0
 10
577.885928
 20
679.359643
 30
0.0
 10
586.021562
 20
679.870693
 30
0.0
  0
SPLINE
  5
1ab
100
AcDbEntity
  8
engravings
 62
1
100
AcDbSpline
 70
8
 71
3
 72
8
 73
4
 74
0
 40
0
 40
0
 40
0
 40
0
 40
1
 40
1
 40
1
 40
1
 10
586.021562
 20
679.870693
 30
0.0
 10
596.626298
 20
680.536835
 30
0.0
 10
605.846902
 20
673.195330
 30
0.0
 10
606.616350
 20
663.472977
 30
0.0
  0
LWPOLYLINE
  5
1ac
100
AcDbEntity
  8
engravings
 62
1
100
AcDbPolyline
 90
2
 70
0
 10
614.599827
 20
661.887798
 30
0.0
 10
614.599827
 20
661.887798
 30
0.0
  0
SPLINE
  5
1ad
100
AcDbEntity
  8
engravings
 62
1
100
AcDbSpline
 70
8
 71
3
 72
8
 73
4
 74
0
 40
0
 40
0
 40
0
 40
0
 40
1
 40
1
 40
1
 40
1
 10
606.616350
 20
663.472977
 30
0.0
 10
607.385803
 20
653.750624
 30
0.0
 10
599.412731
 20
645.329091
 30
0.0
 10
588.807991
 20
644.662944
 30
0.0
  0
SPLINE
  5
1ae
100
AcDbEntity
  8
engravings
 62
1
100
AcDbSpline
 70
8
 71
3
 72
8
 73
4
 74
0
 40
0
 40
0
 40
0
 40
0
 40
1
 40
1
 40
1
 40
1
 10
588.807991
 20
644.662944
 30
0.0
 10
580.396606
 20
644.134579
 30
0.0
 10
572.856007
 20
648.644007
 30
0.0
 10
569.712668
 20
655.383440
 30
0.0
  0
SPLINE
  5
1af
100
AcDbEntity
  8
engravings
 62
1
100
AcDbSpline
 70
8
 71
3
 72
8
 73
4
 74
0
 40
0
 40
0
 40
0
 40
0
 40
1
 40
1
 40
1
 40
1
 10
569.370594
 20
667.394250
 30
0.0
 10
571.413122
 20
671.368262
 30
0.0
 10
575.718020
 20
674.238794
 30
0.0
 10
580.899032
 20
674.560123
 30
0.0
  0
SPLINE
  5
1b0
100
AcDbEntity
  8
engravings
 62
1
100
AcDbSpline
 70
8
 71
3
 72
8
 73
4
 74
0
 40
0
 40
0
 40
0
 40
0
 40
1
 40
1
 40
1
 40
1
 10
580.899032
 20
674.560123
 30
0.0
 10
588.502299
 20
675.031684
 30
0.0
 10
595.113183
 20
669.834640
 30
0.0
 10
595.664856
 20
662.952198
 30
0.0
  0
LWPOLYLINE
  5
1b1
100
AcDbEntity
  8
engravings
 62
1
100
AcDbPolyline
 90
3
 70
0
 10
606.616350
 20
663.472977
 30
0.0
 10
606.616350
 20
663.472977
 30
0.0
 10
606.616350
 20
663.472977
 30
0.0
  0
SPLINE
  5
1b2
100
AcDbEntity
  8
engravings
 62
1
100
AcDbSpline
 70
8
 71
3
 72
8
 73
4
 74
0
 40
0
 40
0
 40
0
 40
0
 40
1
 40
1
 40
1
 40
1
 10
595.664856
 20
662.952198
 30
0.0
 10
596.216529
 20
656.069756
 30
0.0
 10
590.500083
 20
650.108161
 30
0.0
 10
582.896815
 20
649.636600
 30
0.0
  0
SPLINE
  5
1b3
100
AcDbEntity
  8
engravings
 62
1
100
AcDbSpline
 70
8
 71
3
 72
8
 73
4
 74
0
 40
0
 40
0
 40
0
 40
0
 40
1
 40
1
 40
1
 40
1
 10
582.896815
 20
649.636600
 30
0.0
 10
577.769634
 20
649.318607
 30
0.0
 10
573.093726
 20
651.578314
 30
0.0
 10
570.422797
 20
655.194300
 30
0.0
  0
LWPOLYLINE
  5
1b4
100
AcDbEntity
  8
engravings
 62
1
100
AcDbPolyline
 90
3
 70
0
 10
595.664856
 20
662.952198
 30
0.0
 10
595.664856
 20
662.952198
 30
0.0
 10
595.664856
 20
662.952198
 30
0.0
  0
SPLINE
  5
1b5
100
AcDbEntity
  8
engravings
 62
1
100
AcDbSpline
 70
8
 71
3
 72
8
 73
4
 74
0
 40
0
 40
0
 40
0
 40
0
 40
1
 40
1
 40
1
 40
1
 10
567.906854
 20
667.571364
 30
0.0
 10
565.429353
 20
678.003788
 30
0.0
 10
556.285512
 20
685.745910
 30
0.0
 10
545.384476
 20
685.745910
 30
0.0
  0
SPLINE
  5
1b6
100
AcDbEntity
  8
engravings
 62
1
100
AcDbSpline
 70
8
 71
3
 72
8
 73
4
 74
0
 40
0
 40
0
 40
0
 40
0
 40
1
 40
1
 40
1
 40
1
 10
545.384476
 20
685.745910
 30
0.0
 10
532.580143
 20
685.745910
 30
0.0
 10
522.200181
 20
675.064269
 30
0.0
 10
522.200181
 20
661.887798
 30
0.0
  0
LWPOLYLINE
  5
1b7
100
AcDbEntity
  8
engravings
 62
1
100
AcDbPolyline
 90
5
 70
0
 10
549.723189
 20
667.549208
 30
0.0
 10
586.783009
 20
667.549208
 30
0.0
 10
586.783009
 20
655.420540
 30
0.0
 10
549.723189
 20
655.420540
 30
0.0
 10
549.723189
 20
667.549208
 30
0.0
  0
SPLINE
  5
1b8
100
AcDbEntity
  8
engravings
 62
1
100
AcDbSpline
 70
8
 71
3
 72
8
 73
4
 74
0
 40
0
 40
0
 40
0
 40
0
 40
1
 40
1
 40
1
 40
1
 10
522.200181
 20
661.887798
 30
0.0
 10
522.200181
 20
648.711326
 30
0.0
 10
532.580143
 20
638.029694
 30
0.0
 10
545.384476
 20
638.029694
 30
0.0
  0
SPLINE
  5
1b9
100
AcDbEntity
  8
engravings
 62
1
100
AcDbSpline
 70
8
 71
3
 72
8
 73
4
 74
0
 40
0
 40
0
 40
0
 40
0
 40
1
 40
1
 40
1
 40
1
 10
545.384476
 20
638.029694
 30
0.0
 10
555.995572
 20
638.029694
 30
0.0
 10
564.941707
 20
645.365445
 30
0.0
 10
567.695116
 20
655.377613
 30
0.0
  0
SPLINE
  5
1ba
100
AcDbEntity
  8
engravings
 62
1
100
AcDbSpline
 70
8
 71
3
 72
8
 73
4
 74
0
 40
0
 40
0
 40
0
 40
0
 40
1
 40
1
 40
1
 40
1
 10
567.779592
 20
667.558609
 30
0.0
 10
565.500846
 20
674.284167
 30
0.0
 10
558.914080
 20
679.359643
 30
0.0
 10
550.778445
 20
679.870693
 30
0.0
  0
SPLINE
  5
1bb
100
AcDbEntity
  8
engravings
 62
1
100
AcDbSpline
 70
8
 71
3
 72
8
 73
4
 74
0
 40
0
 40
0
 40
0
 40
0
 40
1
 40
1
 40
1
 40
1
 10
550.778445
 20
679.870693
 30
0.0
 10
540.173709
 20
680.536835
 30
0.0
 10
530.953106
 20
673.195330
 30
0.0
 10
530.183658
 20
663.472977
 30
0.0
  0
LWPOLYLINE
  5
1bc
100
AcDbEntity
  8
engravings
 62
1
100
AcDbPolyline
 90
2
 70
0
 10
522.200181
 20
661.887798
 30
0.0
 10
522.200181
 20
661.887798
 30
0.0
  0
SPLINE
  5
1bd
100
AcDbEntity
  8
engravings
 62
1
100
AcDbSpline
 70
8
 71
3
 72
8
 73
4
 74
0
 40
0
 40
0
 40
0
 40
0
 40
1
 40
1
 40
1
 40
1
 10
530.183658
 20
663.472977
 30
0.0
 10
529.414205
 20
653.750624
 30
0.0
 10
537.387277
 20
645.329091
 30
0.0
 10
547.992017
 20
644.662944
 30
0.0
  0
SPLINE
  5
1be
100
AcDbEntity
  8
engravings
 62
1
100
AcDbSpline
 70
8
 71
3
 72
8
 73
4
 74
0
 40
0
 40
0
 40
0
 40
0
 40
1
 40
1
 40
1
 40
1
 10
547.992017
 20
644.662944
 30
0.0
 10
556.403402
 20
644.134579
 30
0.0
 10
563.944001
 20
648.644007
 30
0.0
 10
567.087340
 20
655.383440
 30
0.0
  0
SPLINE
  5
1bf
100
AcDbEntity
  8
engravings
 62
1
100
AcDbSpline
 70
8
 71
3
 72
8
 73
4
 74
0
 40
0
 40
0
 40
0
 40
0
 40
1
 40
1
 40
1
 40
1
 10
567.429414
 20
667.394250
 30
0.0
 10
565.386886
 20
671.368262
 30
0.0
 10
561.081988
 20
674.238794
 30
0.0
 10
555.900976
 20
674.560123
 30
0.0
  0
SPLINE
  5
1c0
100
AcDbEntity
  8
engravings
 62
1
100
AcDbSpline
 70
8
 71
3
 72
8
 73
4
 74
0
 40
0
 40
0
 40
0
 40
0
 40
1
 40
1
 40
1
 40
1
 10
555.900976
 20
674.560123
 30
0.0
 10
548.297709
 20
675.031684
 30
0.0
 10
541.686824
 20
669.834640
 30
0.0
 10
541.135151
 20
662.952198
 30
0.0
  0
LWPOLYLINE
  5
1c1
100
AcDbEntity
  8
engravings
 62
1
100
AcDbPolyline
 90
3
 70
0
 10
530.183658
 20
663.472977
 30
0.0
 10
530.183658
 20
663.472977
 30
0.0
 10
530.183658
 20
663.472977
 30
0.0
  0
SPLINE
  5
1c2
100
AcDbEntity
  8
engravings
 62
1
100
AcDbSpline
 70
8
 71
3
 72
8
 73
4
 74
0
 40
0
 40
0
 40
0
 40
0
 40
1
 40
1
 40
1
 40
1
 10
541.135151
 20
662.952198
 30
0.0
 10
540.583479
 20
656.069756
 30
0.0
 10
546.299925
 20
650.108161
 30
0.0
 10
553.903193
 20
649.636600
 30
0.0
  0
SPLINE
  5
1c3
100
AcDbEntity
  8
engravings
 62
1
100
AcDbSpline
 70
8
 71
3
 72
8
 73
4
 74
0
 40
0
 40
0
 40
0
 40
0
 40
1
 40
1
 40
1
 40
1
 10
553.903193
 20
649.636600
 30
0.0
 10
559.030374
 20
649.318607
 30
0.0
 10
563.706281
 20
651.578314
 30
0.0
 10
566.377211
 20
655.194300
 30
0.0
  0
SPLINE
  5
1c4
100
AcDbEntity
  8
engravings
 62
1
100
AcDbSpline
 70
8
 71
3
 72
8
 73
4
 74
0
 40
0
 40
0
 40
0
 40
0
 40
1
 40
1
 40
1
 40
1
 10
115.732294
 20
680.029642
 30
0.0
 10
117.790902
 20
677.224593
 30
0.0
 10
120.425782
 20
674.621689
 30
0.0
 10
122.132294
 20
671.693132
 30
0.0
  0
SPLINE
  5
1c5
100
AcDbEntity
  8
engravings
 62
1
100
AcDbSpline
 70
8
 71
3
 72
8
 73
4
 74
0
 40
0
 40
0
 40
0
 40
0
 40
1
 40
1
 40
1
 40
1
 10
122.132294
 20
671.693132
 30
0.0
 10
122.132294
 20
668.871969
 30
0.0
 10
122.132294
 20
666.050805
 30
0.0
 10
122.132294
 20
663.229642
 30
0.0
  0
SPLINE
  5
1c6
100
AcDbEntity
  8
engravings
 62
1
100
AcDbSpline
 70
8
 71
3
 72
8
 73
4
 74
0
 40
0
 40
0
 40
0
 40
0
 40
1
 40
1
 40
1
 40
1
 10
128.532294
 20
680.029642
 30
0.0
 10
126.398961
 20
677.362975
 30
0.0
 10
124.265628
 20
674.696308
 30
0.0
 10
122.132294
 20
672.029642
 30
0.0
  0
SPLINE
  5
1c7
100
AcDbEntity
  8
engravings
 62
1
100
AcDbSpline
 70
8
 71
3
 72
8
 73
4
 74
0
 40
0
 40
0
 40
0
 40
0
 40
1
 40
1
 40
1
 40
1
 10
135.732294
 20
674.429642
 30
0.0
 10
131.552036
 20
673.212055
 30
0.0
 10
130.300887
 20
667.127790
 30
0.0
 10
133.722035
 20
664.439901
 30
0.0
  0
SPLINE
  5
1c8
100
AcDbEntity
  8
engravings
 62
1
100
AcDbSpline
 70
8
 71
3
 72
8
 73
4
 74
0
 40
0
 40
0
 40
0
 40
0
 40
1
 40
1
 40
1
 40
1
 10
133.722035
 20
664.439901
 30
0.0
 10
136.456718
 20
661.623866
 30
0.0
 10
141.503581
 20
663.837032
 30
0.0
 10
141.970776
 20
667.545088
 30
0.0
  0
SPLINE
  5
1c9
100
AcDbEntity
  8
engravings
 62
1
100
AcDbSpline
 70
8
 71
3
 72
8
 73
4
 74
0
 40
0
 40
0
 40
0
 40
0
 40
1
 40
1
 40
1
 40
1
 10
141.970776
 20
667.545088
 30
0.0
 10
142.959852
 20
671.257845
 30
0.0
 10
139.664895
 20
675.254494
 30
0.0
 10
135.732294
 20
674.429642
 30
0.0
  0
LWPOLYLINE
  5
1ca
100
AcDbEntity
  8
engravings
 62
1
100
AcDbPolyline
 90
3
 70
0
 10
541.135151
 20
662.952198
 30
0.0
 10
541.135151
 20
662.952198
 30
0.0
 10
541.135151
 20
662.952198
 30
0.0
  0
SPLINE
  5
1cb
100
AcDbEntity
  8
engravings
 62
1
100
AcDbSpline
 70
8
 71
3
 72
8
 73
4
 74
0
 40
0
 40
0
 40
0
 40
0
 40
1
 40
1
 40
1
 40
1
 10
147.732294
 20
674.429642
 30
0.0
 10
147.974680
 20
670.959035
 30
0.0
 10
147.088351
 20
667.305262
 30
0.0
 10
148.532294
 20
664.029642
 30
0.0
  0
SPLINE
  5
1cc
100
AcDbEntity
  8
engravings
 62
1
100
AcDbSpline
 70
8
 71
3
 72
8
 73
4
 74
0
 40
0
 40
0
 40
0
 40
0
 40
1
 40
1
 40
1
 40
1
 10
148.532294
 20
664.029642
 30
0.0
 10
150.936766
 20
662.280879
 30
0.0
 10
154.204914
 20
663.369541
 30
0.0
 10
155.797932
 20
665.695279
 30
0.0
  0
SPLINE
  5
1cd
100
AcDbEntity
  8
engravings
 62
1
100
AcDbSpline
 70
8
 71
3
 72
8
 73
4
 74
0
 40
0
 40
0
 40
0
 40
0
 40
1
 40
1
 40
1
 40
1
 10
155.797932
 20
665.695279
 30
0.0
 10
156.042719
 20
665.940066
 30
0.0
 10
156.287507
 20
666.184854
 30
0.0
 10
156.532294
 20
666.429642
 30
0.0
  0
SPLINE
  5
1ce
100
AcDbEntity
  8
engravings
 62
1
100
AcDbSpline
 70
8
 71
3
 72
8
 73
4
 74
0
 40
0
 40
0
 40
0
 40
0
 40
1
 40
1
 40
1
 40
1
 10
156.532294
 20
674.429642
 30
0.0
 10
156.532294
 20
670.696308
 30
0.0
 10
156.532294
 20
666.962975
 30
0.0
 10
156.532294
 20
663.229642
 30
0.0
  0
SPLINE
  5
1cf
100
AcDbEntity
  8
engravings
 62
1
100
AcDbSpline
 70
8
 71
3
 72
8
 73
4
 74
0
 40
0
 40
0
 40
0
 40
0
 40
1
 40
1
 40
1
 40
1
 10
165.332294
 20
649.859735
 30
0.0
 10
165.475450
 20
645.125293
 30
0.0
 10
165.046660
 20
640.298037
 30
0.0
 10
165.545122
 20
635.621253
 30
0.0
  0
SPLINE
  5
1d0
100
AcDbEntity
  8
engravings
 62
1
100
AcDbSpline
 70
8
 71
3
 72
8
 73
4
 74
0
 40
0
 40
0
 40
0
 40
0
 40
1
 40
1
 40
1
 40
1
 10
165.545122
 20
635.621253
 30
0.0
 10
165.679622
 20
633.614311
 30
0.0
 10
167.518498
 20
632.789598
 30
0.0
 10
169.332294
 20
633.059735
 30
0.0
  0
SPLINE
  5
1d1
100
AcDbEntity
  8
engravings
 62
1
100
AcDbSpline
 70
8
 71
3
 72
8
 73
4
 74
0
 40
0
 40
0
 40
0
 40
0
 40
1
 40
1
 40
1
 40
1
 10
162.932294
 20
644.259735
 30
0.0
 10
164.798961
 20
644.259735
 30
0.0
 10
166.665628
 20
644.259735
 30
0.0
 10
168.532294
 20
644.259735
 30
0.0
  0
SPLINE
  5
1d2
100
AcDbEntity
  8
engravings
 62
1
100
AcDbSpline
 70
8
 71
3
 72
8
 73
4
 74
0
 40
0
 40
0
 40
0
 40
0
 40
1
 40
1
 40
1
 40
1
 10
187.732294
 20
649.859735
 30
0.0
 10
187.875450
 20
645.125293
 30
0.0
 10
187.446660
 20
640.298037
 30
0.0
 10
187.945122
 20
635.621253
 30
0.0
  0
SPLINE
  5
1d3
100
AcDbEntity
  8
engravings
 62
1
100
AcDbSpline
 70
8
 71
3
 72
8
 73
4
 74
0
 40
0
 40
0
 40
0
 40
0
 40
1
 40
1
 40
1
 40
1
 10
187.945122
 20
635.621253
 30
0.0
 10
188.079622
 20
633.614311
 30
0.0
 10
189.918498
 20
632.789598
 30
0.0
 10
191.732294
 20
633.059735
 30
0.0
  0
SPLINE
  5
1d4
100
AcDbEntity
  8
engravings
 62
1
100
AcDbSpline
 70
8
 71
3
 72
8
 73
4
 74
0
 40
0
 40
0
 40
0
 40
0
 40
1
 40
1
 40
1
 40
1
 10
185.332294
 20
644.259735
 30
0.0
 10
187.198961
 20
644.259735
 30
0.0
 10
189.065628
 20
644.259735
 30
0.0
 10
190.932294
 20
644.259735
 30
0.0
  0
SPLINE
  5
1d5
100
AcDbEntity
  8
engravings
 62
1
100
AcDbSpline
 70
8
 71
3
 72
8
 73
4
 74
0
 40
0
 40
0
 40
0
 40
0
 40
1
 40
1
 40
1
 40
1
 10
115.732294
 20
644.259735
 30
0.0
 10
116.798961
 20
640.526402
 30
0.0
 10
117.865628
 20
636.793069
 30
0.0
 10
118.932294
 20
633.059735
 30
0.0
  0
SPLINE
  5
1d6
100
AcDbEntity
  8
engravings
 62
1
100
AcDbSpline
 70
8
 71
3
 72
8
 73
4
 74
0
 40
0
 40
0
 40
0
 40
0
 40
1
 40
1
 40
1
 40
1
 10
122.132294
 20
644.259735
 30
0.0
 10
121.065628
 20
640.526402
 30
0.0
 10
119.998961
 20
636.793069
 30
0.0
 10
118.932294
 20
633.059735
 30
0.0
  0
SPLINE
  5
1d7
100
AcDbEntity
  8
engravings
 62
1
100
AcDbSpline
 70
8
 71
3
 72
8
 73
4
 74
0
 40
0
 40
0
 40
0
 40
0
 40
1
 40
1
 40
1
 40
1
 10
122.132294
 20
644.259735
 30
0.0
 10
123.198961
 20
640.526402
 30
0.0
 10
124.265628
 20
636.793069
 30
0.0
 10
125.332294
 20
633.059735
 30
0.0
  0
SPLINE
  5
1d8
100
AcDbEntity
  8
engravings
 62
1
100
AcDbSpline
 70
8
 71
3
 72
8
 73
4
 74
0
 40
0
 40
0
 40
0
 40
0
 40
1
 40
1
 40
1
 40
1
 10
128.532294
 20
644.259735
 30
0.0
 10
127.465628
 20
640.526402
 30
0.0
 10
126.398961
 20
636.793069
 30
0.0
 10
125.332294
 20
633.059735
 30
0.0
  0
SPLINE
  5
1d9
100
AcDbEntity
  8
engravings
 62
1
100
AcDbSpline
 70
8
 71
3
 72
8
 73
4
 74
0
 40
0
 40
0
 40
0
 40
0
 40
1
 40
1
 40
1
 40
1
 10
142.932294
 20
644.259735
 30
0.0
 10
142.932294
 20
640.526402
 30
0.0
 10
142.932294
 20
636.793069
 30
0.0
 10
142.932294
 20
633.059735
 30
0.0
  0
SPLINE
  5
1da
100
AcDbEntity
  8
engravings
 62
1
100
AcDbSpline
 70
8
 71
3
 72
8
 73
4
 74
0
 40
0
 40
0
 40
0
 40
0
 40
1
 40
1
 40
1
 40
1
 10
142.932294
 20
641.859735
 30
0.0
 10
141.224892
 20
644.489478
 30
0.0
 10
137.133810
 20
645.322848
 30
0.0
 10
135.018450
 20
642.745890
 30
0.0
  0
SPLINE
  5
1db
100
AcDbEntity
  8
engravings
 62
1
100
AcDbSpline
 70
8
 71
3
 72
8
 73
4
 74
0
 40
0
 40
0
 40
0
 40
0
 40
1
 40
1
 40
1
 40
1
 10
135.018450
 20
642.745890
 30
0.0
 10
131.838546
 20
639.927471
 30
0.0
 10
133.425018
 20
633.798991
 30
0.0
 10
137.668804
 20
633.059735
 30
0.0
  0
SPLINE
  5
1dc
100
AcDbEntity
  8
engravings
 62
1
100
AcDbSpline
 70
8
 71
3
 72
8
 73
4
 74
0
 40
0
 40
0
 40
0
 40
0
 40
1
 40
1
 40
1
 40
1
 10
137.668804
 20
633.059735
 30
0.0
 10
139.895330
 20
632.657052
 30
0.0
 10
141.564389
 20
633.810942
 30
0.0
 10
142.932294
 20
635.459735
 30
0.0
  0
SPLINE
  5
1dd
100
AcDbEntity
  8
engravings
 62
1
100
AcDbSpline
 70
8
 71
3
 72
8
 73
4
 74
0
 40
0
 40
0
 40
0
 40
0
 40
1
 40
1
 40
1
 40
1
 10
149.332294
 20
644.259735
 30
0.0
 10
149.332294
 20
640.526402
 30
0.0
 10
149.332294
 20
636.793069
 30
0.0
 10
149.332294
 20
633.059735
 30
0.0
  0
SPLINE
  5
1de
100
AcDbEntity
  8
engravings
 62
1
100
AcDbSpline
 70
8
 71
3
 72
8
 73
4
 74
0
 40
0
 40
0
 40
0
 40
0
 40
1
 40
1
 40
1
 40
1
 10
149.332294
 20
641.059735
 30
0.0
 10
150.978170
 20
643.032528
 30
0.0
 10
153.291346
 20
645.096418
 30
0.0
 10
156.033278
 20
644.109243
 30
0.0
  0
SPLINE
  5
1df
100
AcDbEntity
  8
engravings
 62
1
100
AcDbSpline
 70
8
 71
3
 72
8
 73
4
 74
0
 40
0
 40
0
 40
0
 40
0
 40
1
 40
1
 40
1
 40
1
 10
156.033278
 20
644.109243
 30
0.0
 10
158.726478
 20
643.179330
 30
0.0
 10
158.028444
 20
639.636489
 30
0.0
 10
158.132294
 20
637.358130
 30
0.0
  0
SPLINE
  5
1e0
100
AcDbEntity
  8
engravings
 62
1
100
AcDbSpline
 70
8
 71
3
 72
8
 73
4
 74
0
 40
0
 40
0
 40
0
 40
0
 40
1
 40
1
 40
1
 40
1
 10
158.132294
 20
637.358130
 30
0.0
 10
158.132294
 20
635.925332
 30
0.0
 10
158.132294
 20
634.492534
 30
0.0
 10
158.132294
 20
633.059735
 30
0.0
  0
SPLINE
  5
1e1
100
AcDbEntity
  8
engravings
 62
1
100
AcDbSpline
 70
8
 71
3
 72
8
 73
4
 74
0
 40
0
 40
0
 40
0
 40
0
 40
1
 40
1
 40
1
 40
1
 10
199.732296
 20
644.259735
 30
0.0
 10
195.552038
 20
643.042149
 30
0.0
 10
194.300886
 20
636.957883
 30
0.0
 10
197.722038
 20
634.269994
 30
0.0
  0
SPLINE
  5
1e2
100
AcDbEntity
  8
engravings
 62
1
100
AcDbSpline
 70
8
 71
3
 72
8
 73
4
 74
0
 40
0
 40
0
 40
0
 40
0
 40
1
 40
1
 40
1
 40
1
 10
197.722038
 20
634.269994
 30
0.0
 10
200.456720
 20
631.453960
 30
0.0
 10
205.503584
 20
633.667126
 30
0.0
 10
205.970776
 20
637.375182
 30
0.0
  0
SPLINE
  5
1e3
100
AcDbEntity
  8
engravings
 62
1
100
AcDbSpline
 70
8
 71
3
 72
8
 73
4
 74
0
 40
0
 40
0
 40
0
 40
0
 40
1
 40
1
 40
1
 40
1
 10
205.970776
 20
637.375182
 30
0.0
 10
206.959856
 20
641.087938
 30
0.0
 10
203.664896
 20
645.084588
 30
0.0
 10
199.732296
 20
644.259735
 30
0.0
  0
LWPOLYLINE
  5
1e4
100
AcDbEntity
  8
engravings
 62
1
100
AcDbPolyline
 90
2
 70
0
 10
135.732294
 20
674.429642
 30
0.0
 10
135.732294
 20
674.429642
 30
0.0
  0
SPLINE
  5
1e5
100
AcDbEntity
  8
engravings
 62
1
100
AcDbSpline
 70
8
 71
3
 72
8
 73
4
 74
0
 40
0
 40
0
 40
0
 40
0
 40
1
 40
1
 40
1
 40
1
 10
223.732296
 20
618.889874
 30
0.0
 10
225.630112
 20
616.405822
 30
0.0
 10
225.589856
 20
621.369042
 30
0.0
 10
223.732296
 20
618.889874
 30
0.0
  0
LWPOLYLINE
  5
1e6
100
AcDbEntity
  8
engravings
 62
1
100
AcDbPolyline
 90
2
 70
0
 10
199.732296
 20
644.259735
 30
0.0
 10
199.732296
 20
644.259735
 30
0.0
  0
SPLINE
  5
1e7
100
AcDbEntity
  8
engravings
 62
1
100
AcDbSpline
 70
8
 71
3
 72
8
 73
4
 74
0
 40
0
 40
0
 40
0
 40
0
 40
1
 40
1
 40
1
 40
1
 10
224.532296
 20
613.289874
 30
0.0
 10
224.532296
 20
609.556540
 30
0.0
 10
224.532296
 20
605.823207
 30
0.0
 10
224.532296
 20
602.089874
 30
0.0
  0
SPLINE
  5
1e8
100
AcDbEntity
  8
engravings
 62
1
100
AcDbSpline
 70
8
 71
3
 72
8
 73
4
 74
0
 40
0
 40
0
 40
0
 40
0
 40
1
 40
1
 40
1
 40
1
 10
124.532294
 20
610.889874
 30
0.0
 10
123.859350
 20
613.483549
 30
0.0
 10
120.454693
 20
613.580631
 30
0.0
 10
118.293855
 20
613.077061
 30
0.0
  0
SPLINE
  5
1e9
100
AcDbEntity
  8
engravings
 62
1
100
AcDbSpline
 70
8
 71
3
 72
8
 73
4
 74
0
 40
0
 40
0
 40
0
 40
0
 40
1
 40
1
 40
1
 40
1
 10
118.293855
 20
613.077061
 30
0.0
 10
116.167191
 20
613.086813
 30
0.0
 10
114.920880
 20
610.367443
 30
0.0
 10
116.833257
 20
609.139392
 30
0.0
  0
SPLINE
  5
1ea
100
AcDbEntity
  8
engravings
 62
1
100
AcDbSpline
 70
8
 71
3
 72
8
 73
4
 74
0
 40
0
 40
0
 40
0
 40
0
 40
1
 40
1
 40
1
 40
1
 10
116.833257
 20
609.139392
 30
0.0
 10
119.234371
 20
607.483119
 30
0.0
 10
123.567406
 20
608.743681
 30
0.0
 10
124.532294
 20
605.289874
 30
0.0
  0
SPLINE
  5
1eb
100
AcDbEntity
  8
engravings
 62
1
100
AcDbSpline
 70
8
 71
3
 72
8
 73
4
 74
0
 40
0
 40
0
 40
0
 40
0
 40
1
 40
1
 40
1
 40
1
 10
124.532294
 20
605.289874
 30
0.0
 10
124.799487
 20
602.466730
 30
0.0
 10
121.492572
 20
601.877254
 30
0.0
 10
119.313372
 20
602.089874
 30
0.0
  0
SPLINE
  5
1ec
100
AcDbEntity
  8
engravings
 62
1
100
AcDbSpline
 70
8
 71
3
 72
8
 73
4
 74
0
 40
0
 40
0
 40
0
 40
0
 40
1
 40
1
 40
1
 40
1
 10
119.313372
 20
602.089874
 30
0.0
 10
117.722176
 20
602.328945
 30
0.0
 10
116.121863
 20
602.693766
 30
0.0
 10
115.732294
 20
604.489874
 30
0.0
  0
SPLINE
  5
1ed
100
AcDbEntity
  8
engravings
 62
1
100
AcDbSpline
 70
8
 71
3
 72
8
 73
4
 74
0
 40
0
 40
0
 40
0
 40
0
 40
1
 40
1
 40
1
 40
1
 10
138.932294
 20
610.889874
 30
0.0
 10
137.224895
 20
613.519587
 30
0.0
 10
133.133878
 20
614.352975
 30
0.0
 10
131.018498
 20
611.776077
 30
0.0
  0
SPLINE
  5
1ee
100
AcDbEntity
  8
engravings
 62
1
100
AcDbSpline
 70
8
 71
3
 72
8
 73
4
 74
0
 40
0
 40
0
 40
0
 40
0
 40
1
 40
1
 40
1
 40
1
 10
131.018498
 20
611.776077
 30
0.0
 10
127.838550
 20
608.957671
 30
0.0
 10
129.424987
 20
602.829172
 30
0.0
 10
133.668782
 20
602.089874
 30
0.0
  0
SPLINE
  5
1ef
100
AcDbEntity
  8
engravings
 62
1
100
AcDbSpline
 70
8
 71
3
 72
8
 73
4
 74
0
 40
0
 40
0
 40
0
 40
0
 40
1
 40
1
 40
1
 40
1
 10
133.668782
 20
602.089874
 30
0.0
 10
135.895308
 20
601.687207
 30
0.0
 10
137.564385
 20
602.841070
 30
0.0
 10
138.932294
 20
604.489874
 30
0.0
  0
SPLINE
  5
1f0
100
AcDbEntity
  8
engravings
 62
1
100
AcDbSpline
 70
8
 71
3
 72
8
 73
4
 74
0
 40
0
 40
0
 40
0
 40
0
 40
1
 40
1
 40
1
 40
1
 10
144.532294
 20
613.289874
 30
0.0
 10
144.532294
 20
609.556540
 30
0.0
 10
144.532294
 20
605.823207
 30
0.0
 10
144.532294
 20
602.089874
 30
0.0
  0
SPLINE
  5
1f1
100
AcDbEntity
  8
engravings
 62
1
100
AcDbSpline
 70
8
 71
3
 72
8
 73
4
 74
0
 40
0
 40
0
 40
0
 40
0
 40
1
 40
1
 40
1
 40
1
 10
144.532294
 20
608.489874
 30
0.0
 10
145.009626
 20
611.550190
 30
0.0
 10
147.763858
 20
613.911874
 30
0.0
 10
150.932294
 20
613.289874
 30
0.0
  0
SPLINE
  5
1f2
100
AcDbEntity
  8
engravings
 62
1
100
AcDbSpline
 70
8
 71
3
 72
8
 73
4
 74
0
 40
0
 40
0
 40
0
 40
0
 40
1
 40
1
 40
1
 40
1
 10
154.132294
 20
608.489874
 30
0.0
 10
157.332294
 20
608.489874
 30
0.0
 10
160.532294
 20
608.489874
 30
0.0
 10
163.732294
 20
608.489874
 30
0.0
  0
SPLINE
  5
1f3
100
AcDbEntity
  8
engravings
 62
1
100
AcDbSpline
 70
8
 71
3
 72
8
 73
4
 74
0
 40
0
 40
0
 40
0
 40
0
 40
1
 40
1
 40
1
 40
1
 10
163.732294
 20
608.489874
 30
0.0
 10
164.425238
 20
612.116074
 30
0.0
 10
159.822882
 20
614.687252
 30
0.0
 10
156.928442
 20
612.687947
 30
0.0
  0
SPLINE
  5
1f4
100
AcDbEntity
  8
engravings
 62
1
100
AcDbSpline
 70
8
 71
3
 72
8
 73
4
 74
0
 40
0
 40
0
 40
0
 40
0
 40
1
 40
1
 40
1
 40
1
 10
156.928442
 20
612.687947
 30
0.0
 10
152.892362
 20
610.538648
 30
0.0
 10
153.374514
 20
603.786674
 30
0.0
 10
157.736147
 20
602.287947
 30
0.0
  0
SPLINE
  5
1f5
100
AcDbEntity
  8
engravings
 62
1
100
AcDbSpline
 70
8
 71
3
 72
8
 73
4
 74
0
 40
0
 40
0
 40
0
 40
0
 40
1
 40
1
 40
1
 40
1
 10
157.736147
 20
602.287947
 30
0.0
 10
160.047938
 20
601.434586
 30
0.0
 10
162.300051
 20
602.623930
 30
0.0
 10
163.732294
 20
604.489874
 30
0.0
  0
SPLINE
  5
1f6
100
AcDbEntity
  8
engravings
 62
1
100
AcDbSpline
 70
8
 71
3
 72
8
 73
4
 74
0
 40
0
 40
0
 40
0
 40
0
 40
1
 40
1
 40
1
 40
1
 10
168.532294
 20
613.289874
 30
0.0
 10
169.598961
 20
609.556540
 30
0.0
 10
170.665628
 20
605.823207
 30
0.0
 10
171.732294
 20
602.089874
 30
0.0
  0
SPLINE
  5
1f7
100
AcDbEntity
  8
engravings
 62
1
100
AcDbSpline
 70
8
 71
3
 72
8
 73
4
 74
0
 40
0
 40
0
 40
0
 40
0
 40
1
 40
1
 40
1
 40
1
 10
174.932294
 20
613.289874
 30
0.0
 10
173.865628
 20
609.556540
 30
0.0
 10
172.798961
 20
605.823207
 30
0.0
 10
171.732294
 20
602.089874
 30
0.0
  0
SPLINE
  5
1f8
100
AcDbEntity
  8
engravings
 62
1
100
AcDbSpline
 70
8
 71
3
 72
8
 73
4
 74
0
 40
0
 40
0
 40
0
 40
0
 40
1
 40
1
 40
1
 40
1
 10
174.932294
 20
613.289874
 30
0.0
 10
175.998961
 20
609.556540
 30
0.0
 10
177.065628
 20
605.823207
 30
0.0
 10
178.132294
 20
602.089874
 30
0.0
  0
SPLINE
  5
1f9
100
AcDbEntity
  8
engravings
 62
1
100
AcDbSpline
 70
8
 71
3
 72
8
 73
4
 74
0
 40
0
 40
0
 40
0
 40
0
 40
1
 40
1
 40
1
 40
1
 10
181.332294
 20
613.289874
 30
0.0
 10
180.265628
 20
609.556540
 30
0.0
 10
179.198961
 20
605.823207
 30
0.0
 10
178.132294
 20
602.089874
 30
0.0
  0
SPLINE
  5
1fa
100
AcDbEntity
  8
engravings
 62
1
100
AcDbSpline
 70
8
 71
3
 72
8
 73
4
 74
0
 40
0
 40
0
 40
0
 40
0
 40
1
 40
1
 40
1
 40
1
 10
200.532296
 20
618.889874
 30
0.0
 10
200.675416
 20
614.155442
 30
0.0
 10
200.246712
 20
609.328214
 30
0.0
 10
200.745112
 20
604.651434
 30
0.0
  0
SPLINE
  5
1fb
100
AcDbEntity
  8
engravings
 62
1
100
AcDbSpline
 70
8
 71
3
 72
8
 73
4
 74
0
 40
0
 40
0
 40
0
 40
0
 40
1
 40
1
 40
1
 40
1
 10
200.745112
 20
604.651434
 30
0.0
 10
200.879640
 20
602.644490
 30
0.0
 10
202.718456
 20
601.819731
 30
0.0
 10
204.532296
 20
602.089874
 30
0.0
  0
SPLINE
  5
1fc
100
AcDbEntity
  8
engravings
 62
1
100
AcDbSpline
 70
8
 71
3
 72
8
 73
4
 74
0
 40
0
 40
0
 40
0
 40
0
 40
1
 40
1
 40
1
 40
1
 10
198.132297
 20
613.289874
 30
0.0
 10
199.998960
 20
613.289874
 30
0.0
 10
201.865632
 20
613.289874
 30
0.0
 10
203.732296
 20
613.289874
 30
0.0
  0
SPLINE
  5
1fd
100
AcDbEntity
  8
engravings
 62
1
100
AcDbSpline
 70
8
 71
3
 72
8
 73
4
 74
0
 40
0
 40
0
 40
0
 40
0
 40
1
 40
1
 40
1
 40
1
 10
209.332296
 20
618.889874
 30
0.0
 10
209.332296
 20
613.289874
 30
0.0
 10
209.332296
 20
607.689874
 30
0.0
 10
209.332296
 20
602.089874
 30
0.0
  0
SPLINE
  5
1fe
100
AcDbEntity
  8
engravings
 62
1
100
AcDbSpline
 70
8
 71
3
 72
8
 73
4
 74
0
 40
0
 40
0
 40
0
 40
0
 40
1
 40
1
 40
1
 40
1
 10
209.332296
 20
610.089874
 30
0.0
 10
210.978184
 20
612.062658
 30
0.0
 10
213.291328
 20
614.126527
 30
0.0
 10
216.033256
 20
613.139392
 30
0.0
  0
SPLINE
  5
1ff
100
AcDbEntity
  8
engravings
 62
1
100
AcDbSpline
 70
8
 71
3
 72
8
 73
4
 74
0
 40
0
 40
0
 40
0
 40
0
 40
1
 40
1
 40
1
 40
1
 10
216.033256
 20
613.139392
 30
0.0
 10
218.726384
 20
612.209527
 30
0.0
 10
218.028480
 20
608.666826
 30
0.0
 10
218.132296
 20
606.388515
 30
0.0
  0
SPLINE
  5
200
100
AcDbEntity
  8
engravings
 62
1
100
AcDbSpline
 70
8
 71
3
 72
8
 73
4
 74
0
 40
0
 40
0
 40
0
 40
0
 40
1
 40
1
 40
1
 40
1
 10
218.132296
 20
606.388515
 30
0.0
 10
218.132296
 20
604.955635
 30
0.0
 10
218.132296
 20
603.522754
 30
0.0
 10
218.132296
 20
602.089874
 30
0.0
  0
SPLINE
  5
201
100
AcDbEntity
  8
engravings
 62
1
100
AcDbSpline
 70
8
 71
3
 72
8
 73
4
 74
0
 40
0
 40
0
 40
0
 40
0
 40
1
 40
1
 40
1
 40
1
 10
238.932296
 20
610.889874
 30
0.0
 10
238.259352
 20
613.483549
 30
0.0
 10
234.854696
 20
613.580631
 30
0.0
 10
232.693856
 20
613.077061
 30
0.0
  0
SPLINE
  5
202
100
AcDbEntity
  8
engravings
 62
1
100
AcDbSpline
 70
8
 71
3
 72
8
 73
4
 74
0
 40
0
 40
0
 40
0
 40
0
 40
1
 40
1
 40
1
 40
1
 10
232.693856
 20
613.077061
 30
0.0
 10
230.567192
 20
613.086813
 30
0.0
 10
229.320880
 20
610.367443
 30
0.0
 10
231.233256
 20
609.139392
 30
0.0
  0
SPLINE
  5
203
100
AcDbEntity
  8
engravings
 62
1
100
AcDbSpline
 70
8
 71
3
 72
8
 73
4
 74
0
 40
0
 40
0
 40
0
 40
0
 40
1
 40
1
 40
1
 40
1
 10
231.233256
 20
609.139392
 30
0.0
 10
233.634376
 20
607.483119
 30
0.0
 10
237.967408
 20
608.743681
 30
0.0
 10
238.932296
 20
605.289874
 30
0.0
  0
SPLINE
  5
204
100
AcDbEntity
  8
engravings
 62
1
100
AcDbSpline
 70
8
 71
3
 72
8
 73
4
 74
0
 40
0
 40
0
 40
0
 40
0
 40
1
 40
1
 40
1
 40
1
 10
238.932296
 20
605.289874
 30
0.0
 10
239.199488
 20
602.466730
 30
0.0
 10
235.892576
 20
601.877254
 30
0.0
 10
233.713376
 20
602.089874
 30
0.0
  0
SPLINE
  5
205
100
AcDbEntity
  8
engravings
 62
1
100
AcDbSpline
 70
8
 71
3
 72
8
 73
4
 74
0
 40
0
 40
0
 40
0
 40
0
 40
1
 40
1
 40
1
 40
1
 10
233.713376
 20
602.089874
 30
0.0
 10
232.122176
 20
602.328945
 30
0.0
 10
230.521864
 20
602.693766
 30
0.0
 10
230.132296
 20
604.489874
 30
0.0
  0
SPLINE
  5
206
100
AcDbEntity
  8
engravings
 62
1
100
AcDbSpline
 70
8
 71
3
 72
8
 73
4
 74
0
 40
0
 40
0
 40
0
 40
0
 40
1
 40
1
 40
1
 40
1
 10
115.732295
 20
583.919968
 30
0.0
 10
115.732295
 20
578.319968
 30
0.0
 10
115.732295
 20
572.719968
 30
0.0
 10
115.732295
 20
567.119968
 30
0.0
  0
SPLINE
  5
207
100
AcDbEntity
  8
engravings
 62
1
100
AcDbSpline
 70
8
 71
3
 72
8
 73
4
 74
0
 40
0
 40
0
 40
0
 40
0
 40
1
 40
1
 40
1
 40
1
 10
115.732295
 20
581.519968
 30
0.0
 10
117.439694
 20
584.149680
 30
0.0
 10
121.530710
 20
584.983072
 30
0.0
 10
123.646091
 20
582.406168
 30
0.0
  0
SPLINE
  5
208
100
AcDbEntity
  8
engravings
 62
1
100
AcDbSpline
 70
8
 71
3
 72
8
 73
4
 74
0
 40
0
 40
0
 40
0
 40
0
 40
1
 40
1
 40
1
 40
1
 10
123.646091
 20
582.406168
 30
0.0
 10
126.826038
 20
579.587768
 30
0.0
 10
125.239602
 20
573.459264
 30
0.0
 10
120.995807
 20
572.719968
 30
0.0
  0
SPLINE
  5
209
100
AcDbEntity
  8
engravings
 62
1
100
AcDbSpline
 70
8
 71
3
 72
8
 73
4
 74
0
 40
0
 40
0
 40
0
 40
0
 40
1
 40
1
 40
1
 40
1
 10
120.995807
 20
572.719968
 30
0.0
 10
118.769281
 20
572.317304
 30
0.0
 10
117.100205
 20
573.471168
 30
0.0
 10
115.732295
 20
575.119968
 30
0.0
  0
SPLINE
  5
20a
100
AcDbEntity
  8
engravings
 62
1
100
AcDbSpline
 70
8
 71
3
 72
8
 73
4
 74
0
 40
0
 40
0
 40
0
 40
0
 40
1
 40
1
 40
1
 40
1
 10
130.932294
 20
583.919968
 30
0.0
 10
131.174656
 20
580.449360
 30
0.0
 10
130.288394
 20
576.795592
 30
0.0
 10
131.732294
 20
573.519968
 30
0.0
  0
SPLINE
  5
20b
100
AcDbEntity
  8
engravings
 62
1
100
AcDbSpline
 70
8
 71
3
 72
8
 73
4
 74
0
 40
0
 40
0
 40
0
 40
0
 40
1
 40
1
 40
1
 40
1
 10
131.732294
 20
573.519968
 30
0.0
 10
134.136708
 20
571.771272
 30
0.0
 10
137.404815
 20
572.859800
 30
0.0
 10
138.997821
 20
575.185496
 30
0.0
  0
SPLINE
  5
20c
100
AcDbEntity
  8
engravings
 62
1
100
AcDbSpline
 70
8
 71
3
 72
8
 73
4
 74
0
 40
0
 40
0
 40
0
 40
0
 40
1
 40
1
 40
1
 40
1
 10
138.997821
 20
575.185496
 30
0.0
 10
139.242646
 20
575.430320
 30
0.0
 10
139.487470
 20
575.675144
 30
0.0
 10
139.732294
 20
575.919968
 30
0.0
  0
SPLINE
  5
20d
100
AcDbEntity
  8
engravings
 62
1
100
AcDbSpline
 70
8
 71
3
 72
8
 73
4
 74
0
 40
0
 40
0
 40
0
 40
0
 40
1
 40
1
 40
1
 40
1
 10
139.732294
 20
583.919968
 30
0.0
 10
139.732294
 20
580.186632
 30
0.0
 10
139.732294
 20
576.453304
 30
0.0
 10
139.732294
 20
572.719968
 30
0.0
  0
SPLINE
  5
20e
100
AcDbEntity
  8
engravings
 62
1
100
AcDbSpline
 70
8
 71
3
 72
8
 73
4
 74
0
 40
0
 40
0
 40
0
 40
0
 40
1
 40
1
 40
1
 40
1
 10
154.132294
 20
583.919968
 30
0.0
 10
151.198961
 20
580.186632
 30
0.0
 10
148.265628
 20
576.453304
 30
0.0
 10
145.332294
 20
572.719968
 30
0.0
  0
SPLINE
  5
20f
100
AcDbEntity
  8
engravings
 62
1
100
AcDbSpline
 70
8
 71
3
 72
8
 73
4
 74
0
 40
0
 40
0
 40
0
 40
0
 40
1
 40
1
 40
1
 40
1
 10
145.332294
 20
583.919968
 30
0.0
 10
148.265628
 20
583.919968
 30
0.0
 10
151.198961
 20
583.919968
 30
0.0
 10
154.132294
 20
583.919968
 30
0.0
  0
SPLINE
  5
210
100
AcDbEntity
  8
engravings
 62
1
100
AcDbSpline
 70
8
 71
3
 72
8
 73
4
 74
0
 40
0
 40
0
 40
0
 40
0
 40
1
 40
1
 40
1
 40
1
 10
145.332294
 20
572.719968
 30
0.0
 10
148.265628
 20
572.719968
 30
0.0
 10
151.198961
 20
572.719968
 30
0.0
 10
154.132294
 20
572.719968
 30
0.0
  0
SPLINE
  5
211
100
AcDbEntity
  8
engravings
 62
1
100
AcDbSpline
 70
8
 71
3
 72
8
 73
4
 74
0
 40
0
 40
0
 40
0
 40
0
 40
1
 40
1
 40
1
 40
1
 10
167.732294
 20
583.919968
 30
0.0
 10
164.798961
 20
580.186632
 30
0.0
 10
161.865628
 20
576.453304
 30
0.0
 10
158.932294
 20
572.719968
 30
0.0
  0
SPLINE
  5
212
100
AcDbEntity
  8
engravings
 62
1
100
AcDbSpline
 70
8
 71
3
 72
8
 73
4
 74
0
 40
0
 40
0
 40
0
 40
0
 40
1
 40
1
 40
1
 40
1
 10
158.932294
 20
583.919968
 30
0.0
 10
161.865628
 20
583.919968
 30
0.0
 10
164.798961
 20
583.919968
 30
0.0
 10
167.732294
 20
583.919968
 30
0.0
  0
SPLINE
  5
213
100
AcDbEntity
  8
engravings
 62
1
100
AcDbSpline
 70
8
 71
3
 72
8
 73
4
 74
0
 40
0
 40
0
 40
0
 40
0
 40
1
 40
1
 40
1
 40
1
 10
158.932294
 20
572.719968
 30
0.0
 10
161.865628
 20
572.719968
 30
0.0
 10
164.798961
 20
572.719968
 30
0.0
 10
167.732294
 20
572.719968
 30
0.0
  0
SPLINE
  5
214
100
AcDbEntity
  8
engravings
 62
1
100
AcDbSpline
 70
8
 71
3
 72
8
 73
4
 74
0
 40
0
 40
0
 40
0
 40
0
 40
1
 40
1
 40
1
 40
1
 10
173.332294
 20
589.519968
 30
0.0
 10
173.332294
 20
583.919968
 30
0.0
 10
173.332294
 20
578.319968
 30
0.0
 10
173.332294
 20
572.719968
 30
0.0
  0
SPLINE
  5
215
100
AcDbEntity
  8
engravings
 62
1
100
AcDbSpline
 70
8
 71
3
 72
8
 73
4
 74
0
 40
0
 40
0
 40
0
 40
0
 40
1
 40
1
 40
1
 40
1
 10
178.932294
 20
579.119968
 30
0.0
 10
182.132294
 20
579.119968
 30
0.0
 10
185.332294
 20
579.119968
 30
0.0
 10
188.532294
 20
579.119968
 30
0.0
  0
SPLINE
  5
216
100
AcDbEntity
  8
engravings
 62
1
100
AcDbSpline
 70
8
 71
3
 72
8
 73
4
 74
0
 40
0
 40
0
 40
0
 40
0
 40
1
 40
1
 40
1
 40
1
 10
188.532294
 20
579.119968
 30
0.0
 10
189.225238
 20
582.746168
 30
0.0
 10
184.622882
 20
585.317344
 30
0.0
 10
181.728442
 20
583.318040
 30
0.0
  0
SPLINE
  5
217
100
AcDbEntity
  8
engravings
 62
1
100
AcDbSpline
 70
8
 71
3
 72
8
 73
4
 74
0
 40
0
 40
0
 40
0
 40
0
 40
1
 40
1
 40
1
 40
1
 10
181.728442
 20
583.318040
 30
0.0
 10
177.692362
 20
581.168744
 30
0.0
 10
178.174514
 20
574.416768
 30
0.0
 10
182.536147
 20
572.918040
 30
0.0
  0
SPLINE
  5
218
100
AcDbEntity
  8
engravings
 62
1
100
AcDbSpline
 70
8
 71
3
 72
8
 73
4
 74
0
 40
0
 40
0
 40
0
 40
0
 40
1
 40
1
 40
1
 40
1
 10
182.536147
 20
572.918040
 30
0.0
 10
184.847938
 20
572.064680
 30
0.0
 10
187.100051
 20
573.254024
 30
0.0
 10
188.532294
 20
575.119968
 30
0.0
  0
SPLINE
  5
219
100
AcDbEntity
  8
engravings
 62
1
100
AcDbSpline
 70
8
 71
3
 72
8
 73
4
 74
0
 40
0
 40
0
 40
0
 40
0
 40
1
 40
1
 40
1
 40
1
 10
206.932288
 20
583.919968
 30
0.0
 10
207.174648
 20
580.449360
 30
0.0
 10
206.288384
 20
576.795592
 30
0.0
 10
207.732288
 20
573.519968
 30
0.0
  0
SPLINE
  5
21a
100
AcDbEntity
  8
engravings
 62
1
100
AcDbSpline
 70
8
 71
3
 72
8
 73
4
 74
0
 40
0
 40
0
 40
0
 40
0
 40
1
 40
1
 40
1
 40
1
 10
207.732288
 20
573.519968
 30
0.0
 10
210.136704
 20
571.771272
 30
0.0
 10
213.404808
 20
572.859800
 30
0.0
 10
214.997816
 20
575.185496
 30
0.0
  0
SPLINE
  5
21b
100
AcDbEntity
  8
engravings
 62
1
100
AcDbSpline
 70
8
 71
3
 72
8
 73
4
 74
0
 40
0
 40
0
 40
0
 40
0
 40
1
 40
1
 40
1
 40
1
 10
214.997816
 20
575.185496
 30
0.0
 10
215.242640
 20
575.430320
 30
0.0
 10
215.487464
 20
575.675144
 30
0.0
 10
215.732288
 20
575.919968
 30
0.0
  0
SPLINE
  5
21c
100
AcDbEntity
  8
engravings
 62
1
100
AcDbSpline
 70
8
 71
3
 72
8
 73
4
 74
0
 40
0
 40
0
 40
0
 40
0
 40
1
 40
1
 40
1
 40
1
 10
215.732288
 20
583.919968
 30
0.0
 10
215.732288
 20
580.186632
 30
0.0
 10
215.732288
 20
576.453304
 30
0.0
 10
215.732288
 20
572.719968
 30
0.0
  0
SPLINE
  5
21d
100
AcDbEntity
  8
engravings
 62
1
100
AcDbSpline
 70
8
 71
3
 72
8
 73
4
 74
0
 40
0
 40
0
 40
0
 40
0
 40
1
 40
1
 40
1
 40
1
 10
222.132288
 20
583.919968
 30
0.0
 10
222.132288
 20
578.319968
 30
0.0
 10
222.132288
 20
572.719968
 30
0.0
 10
222.132288
 20
567.119968
 30
0.0
  0
SPLINE
  5
21e
100
AcDbEntity
  8
engravings
 62
1
100
AcDbSpline
 70
8
 71
3
 72
8
 73
4
 74
0
 40
0
 40
0
 40
0
 40
0
 40
1
 40
1
 40
1
 40
1
 10
222.132288
 20
581.519968
 30
0.0
 10
223.839688
 20
584.149680
 30
0.0
 10
227.930704
 20
584.983072
 30
0.0
 10
230.046088
 20
582.406168
 30
0.0
  0
SPLINE
  5
21f
100
AcDbEntity
  8
engravings
 62
1
100
AcDbSpline
 70
8
 71
3
 72
8
 73
4
 74
0
 40
0
 40
0
 40
0
 40
0
 40
1
 40
1
 40
1
 40
1
 10
230.046088
 20
582.406168
 30
0.0
 10
233.226032
 20
579.587768
 30
0.0
 10
231.639592
 20
573.459264
 30
0.0
 10
227.395800
 20
572.719968
 30
0.0
  0
SPLINE
  5
220
100
AcDbEntity
  8
engravings
 62
1
100
AcDbSpline
 70
8
 71
3
 72
8
 73
4
 74
0
 40
0
 40
0
 40
0
 40
0
 40
1
 40
1
 40
1
 40
1
 10
227.395800
 20
572.719968
 30
0.0
 10
225.169272
 20
572.317304
 30
0.0
 10
223.500200
 20
573.471168
 30
0.0
 10
222.132288
 20
575.119968
 30
0.0
  0
LWPOLYLINE
  5
221
100
AcDbEntity
  8
engravings
 62
1
100
AcDbPolyline
 90
2
 70
0
 10
223.732296
 20
618.889874
 30
0.0
 10
223.732296
 20
618.889874
 30
0.0
  0
ENDSEC
  0
SECTION
  2
OBJECTS
  0
DICTIONARY
  5
C
330
0
100
AcDbDictionary
  3
ACAD_GROUP
350
D
  3
ACAD_MLINESTYLE
350
17
  0
DICTIONARY
  5
D
330
C
100
AcDbDictionary
  0
DICTIONARY
  5
1A
330
C
100
AcDbDictionary
  0
DICTIONARY
  5
17
330
C
100
AcDbDictionary
  3
STANDARD
350
18
  0
DICTIONARY
  5
19
330
C
100
AcDbDictionary
  0
ENDSEC
  0
EOF
